<?xml version="1.0" encoding="UTF-8" standalone="no"?>
<!-- Created with Inkscape (http://www.inkscape.org/) -->

<svg
   xmlns:dc="http://purl.org/dc/elements/1.1/"
   xmlns:cc="http://creativecommons.org/ns#"
   xmlns:rdf="http://www.w3.org/1999/02/22-rdf-syntax-ns#"
   xmlns:svg="http://www.w3.org/2000/svg"
   xmlns="http://www.w3.org/2000/svg"
   xmlns:xlink="http://www.w3.org/1999/xlink"
   version="1.1"
   width="518.85608"
   height="223.98463"
   id="svg2"
   xml:space="preserve"><metadata
     id="metadata8"><rdf:RDF><cc:Work
         rdf:about=""><dc:format>image/svg+xml</dc:format><dc:type
           rdf:resource="http://purl.org/dc/dcmitype/StillImage" /><dc:title></dc:title></cc:Work></rdf:RDF></metadata><defs
     id="defs6"><linearGradient
       id="linearGradient8838"><stop
         id="stop8840"
         style="stop-color:#ffffff;stop-opacity:1"
         offset="0" /><stop
         id="stop8842"
         style="stop-color:#cccccc;stop-opacity:1"
         offset="1" /></linearGradient><linearGradient
       id="linearGradient8052"><stop
         id="stop8054"
         style="stop-color:#666666;stop-opacity:1"
         offset="0" /><stop
         id="stop8058"
         style="stop-color:#cccccc;stop-opacity:1"
         offset="0.11954857" /><stop
         id="stop8062"
         style="stop-color:#b3b3b3;stop-opacity:1"
         offset="0.48190203" /><stop
         id="stop8060"
         style="stop-color:#d4d4d4;stop-opacity:1"
         offset="0.82114011" /><stop
         id="stop8056"
         style="stop-color:#666666;stop-opacity:1"
         offset="1" /></linearGradient><linearGradient
       id="linearGradient7673"><stop
         id="stop7675"
         style="stop-color:#999999;stop-opacity:1"
         offset="0" /><stop
         id="stop7677"
         style="stop-color:#b3b3b3;stop-opacity:1"
         offset="1" /></linearGradient><linearGradient
       id="linearGradient7646"><stop
         id="stop7648"
         style="stop-color:#ffffff;stop-opacity:1"
         offset="0" /><stop
         id="stop7650"
         style="stop-color:#cccccc;stop-opacity:1"
         offset="1" /></linearGradient><clipPath
       id="clipPath18"><path
         d="m -1,843 597,0 0,-844 -597,0 0,844 z"
         id="path20" /></clipPath><clipPath
       id="clipPath24"><path
         d="m 0,842.05 595,0 0,-842 -595,0 0,842 z"
         id="path26" /></clipPath><clipPath
       id="clipPath64"><path
         d="m 210.78,111.739 297.589,0 0,297.591 -297.589,0 0,-297.591 z"
         id="path66" /></clipPath><clipPath
       id="clipPath70"><path
         d="m 278.84,433.93 161.71,0 0,-347.04 -161.71,0 0,347.04 z"
         id="path72" /></clipPath><clipPath
       id="clipPath76"><path
         d="m -1,843 597,0 0,-844 -597,0 0,844 z"
         id="path78" /></clipPath><clipPath
       id="clipPath82"><path
         d="m 0,842.05 595,0 0,-842 -595,0 0,842 z"
         id="path84" /></clipPath><clipPath
       id="clipPath154"><path
         d="m 112.44,119.063 119.309,0 0,276.377 -119.309,0 0,-276.377 z"
         id="path156" /></clipPath><linearGradient
       x1="264.68622"
       y1="720.32764"
       x2="434.32455"
       y2="721.15137"
       id="linearGradient7654"
       xlink:href="#linearGradient7646"
       gradientUnits="userSpaceOnUse" /><linearGradient
       x1="-313.56241"
       y1="681.77887"
       x2="-160.37532"
       y2="679.90253"
       id="linearGradient7671"
       xlink:href="#linearGradient7673"
       gradientUnits="userSpaceOnUse" /><linearGradient
       x1="264.68622"
       y1="720.32764"
       x2="434.32455"
       y2="721.15137"
       id="linearGradient8244"
       xlink:href="#linearGradient7646"
       gradientUnits="userSpaceOnUse" /><linearGradient
       x1="264.68622"
       y1="720.32764"
       x2="434.32455"
       y2="721.15137"
       id="linearGradient8246"
       xlink:href="#linearGradient7646"
       gradientUnits="userSpaceOnUse" /><linearGradient
       x1="264.68622"
       y1="720.32764"
       x2="434.32455"
       y2="721.15137"
       id="linearGradient8248"
       xlink:href="#linearGradient7646"
       gradientUnits="userSpaceOnUse" /><linearGradient
       x1="264.68622"
       y1="720.32764"
       x2="434.32455"
       y2="721.15137"
       id="linearGradient8250"
       xlink:href="#linearGradient7646"
       gradientUnits="userSpaceOnUse" /><linearGradient
       x1="264.68622"
       y1="720.32764"
       x2="434.32455"
       y2="721.15137"
       id="linearGradient8252"
       xlink:href="#linearGradient7646"
       gradientUnits="userSpaceOnUse" /><linearGradient
       x1="264.68622"
       y1="720.32764"
       x2="434.32455"
       y2="721.15137"
       id="linearGradient8254"
       xlink:href="#linearGradient7646"
       gradientUnits="userSpaceOnUse" /><linearGradient
       x1="264.68622"
       y1="720.32764"
       x2="434.32455"
       y2="721.15137"
       id="linearGradient8256"
       xlink:href="#linearGradient7646"
       gradientUnits="userSpaceOnUse" /><linearGradient
       x1="264.68622"
       y1="720.32764"
       x2="434.32455"
       y2="721.15137"
       id="linearGradient8258"
       xlink:href="#linearGradient7646"
       gradientUnits="userSpaceOnUse" /><linearGradient
       x1="264.68622"
       y1="720.32764"
       x2="434.32455"
       y2="721.15137"
       id="linearGradient8260"
       xlink:href="#linearGradient7646"
       gradientUnits="userSpaceOnUse" /><linearGradient
       x1="264.68622"
       y1="720.32764"
       x2="434.32455"
       y2="721.15137"
       id="linearGradient8262"
       xlink:href="#linearGradient7646"
       gradientUnits="userSpaceOnUse" /><linearGradient
       x1="264.68622"
       y1="720.32764"
       x2="434.32455"
       y2="721.15137"
       id="linearGradient8264"
       xlink:href="#linearGradient7646"
       gradientUnits="userSpaceOnUse" /><linearGradient
       x1="264.68622"
       y1="720.32764"
       x2="434.32455"
       y2="721.15137"
       id="linearGradient8266"
       xlink:href="#linearGradient7646"
       gradientUnits="userSpaceOnUse" /><linearGradient
       x1="264.68622"
       y1="720.32764"
       x2="434.32455"
       y2="721.15137"
       id="linearGradient8268"
       xlink:href="#linearGradient7646"
       gradientUnits="userSpaceOnUse" /><linearGradient
       x1="264.68622"
       y1="720.32764"
       x2="434.32455"
       y2="721.15137"
       id="linearGradient8270"
       xlink:href="#linearGradient7646"
       gradientUnits="userSpaceOnUse" /><linearGradient
       x1="264.68622"
       y1="720.32764"
       x2="434.32455"
       y2="721.15137"
       id="linearGradient8272"
       xlink:href="#linearGradient7646"
       gradientUnits="userSpaceOnUse" /><linearGradient
       x1="264.68622"
       y1="720.32764"
       x2="434.32455"
       y2="721.15137"
       id="linearGradient8274"
       xlink:href="#linearGradient7646"
       gradientUnits="userSpaceOnUse" /><linearGradient
       x1="264.68622"
       y1="720.32764"
       x2="434.32455"
       y2="721.15137"
       id="linearGradient8276"
       xlink:href="#linearGradient7646"
       gradientUnits="userSpaceOnUse" /><linearGradient
       x1="264.68622"
       y1="720.32764"
       x2="434.32455"
       y2="721.15137"
       id="linearGradient8278"
       xlink:href="#linearGradient7646"
       gradientUnits="userSpaceOnUse" /><linearGradient
       x1="264.68622"
       y1="720.32764"
       x2="434.32455"
       y2="721.15137"
       id="linearGradient8280"
       xlink:href="#linearGradient7646"
       gradientUnits="userSpaceOnUse" /><linearGradient
       x1="264.68622"
       y1="720.32764"
       x2="434.32455"
       y2="721.15137"
       id="linearGradient8282"
       xlink:href="#linearGradient7646"
       gradientUnits="userSpaceOnUse" /><linearGradient
       x1="264.68622"
       y1="720.32764"
       x2="434.32455"
       y2="721.15137"
       id="linearGradient8284"
       xlink:href="#linearGradient7646"
       gradientUnits="userSpaceOnUse" /><linearGradient
       x1="264.68622"
       y1="720.32764"
       x2="434.32455"
       y2="721.15137"
       id="linearGradient8286"
       xlink:href="#linearGradient7646"
       gradientUnits="userSpaceOnUse" /><linearGradient
       x1="264.68622"
       y1="720.32764"
       x2="434.32455"
       y2="721.15137"
       id="linearGradient8288"
       xlink:href="#linearGradient7646"
       gradientUnits="userSpaceOnUse" /><linearGradient
       x1="264.68622"
       y1="720.32764"
       x2="434.32455"
       y2="721.15137"
       id="linearGradient8290"
       xlink:href="#linearGradient7646"
       gradientUnits="userSpaceOnUse" /><linearGradient
       x1="264.68622"
       y1="720.32764"
       x2="434.32455"
       y2="721.15137"
       id="linearGradient8292"
       xlink:href="#linearGradient7646"
       gradientUnits="userSpaceOnUse" /><linearGradient
       x1="264.68622"
       y1="720.32764"
       x2="434.32455"
       y2="721.15137"
       id="linearGradient8294"
       xlink:href="#linearGradient7646"
       gradientUnits="userSpaceOnUse" /><linearGradient
       x1="264.68622"
       y1="720.32764"
       x2="434.32455"
       y2="721.15137"
       id="linearGradient8296"
       xlink:href="#linearGradient7646"
       gradientUnits="userSpaceOnUse" /><linearGradient
       x1="264.68622"
       y1="720.32764"
       x2="434.32455"
       y2="721.15137"
       id="linearGradient8298"
       xlink:href="#linearGradient7646"
       gradientUnits="userSpaceOnUse" /><linearGradient
       x1="264.68622"
       y1="720.32764"
       x2="434.32455"
       y2="721.15137"
       id="linearGradient8300"
       xlink:href="#linearGradient7646"
       gradientUnits="userSpaceOnUse" /><linearGradient
       x1="264.68622"
       y1="720.32764"
       x2="434.32455"
       y2="721.15137"
       id="linearGradient8302"
       xlink:href="#linearGradient7646"
       gradientUnits="userSpaceOnUse" /><linearGradient
       x1="264.68622"
       y1="720.32764"
       x2="434.32455"
       y2="721.15137"
       id="linearGradient8304"
       xlink:href="#linearGradient7646"
       gradientUnits="userSpaceOnUse" /><linearGradient
       x1="264.68622"
       y1="720.32764"
       x2="434.32455"
       y2="721.15137"
       id="linearGradient8306"
       xlink:href="#linearGradient7646"
       gradientUnits="userSpaceOnUse" /><linearGradient
       x1="264.68622"
       y1="720.32764"
       x2="434.32455"
       y2="721.15137"
       id="linearGradient8308"
       xlink:href="#linearGradient7646"
       gradientUnits="userSpaceOnUse" /><linearGradient
       x1="264.68622"
       y1="720.32764"
       x2="434.32455"
       y2="721.15137"
       id="linearGradient8310"
       xlink:href="#linearGradient7646"
       gradientUnits="userSpaceOnUse" /><linearGradient
       x1="264.68622"
       y1="720.32764"
       x2="434.32455"
       y2="721.15137"
       id="linearGradient8312"
       xlink:href="#linearGradient7646"
       gradientUnits="userSpaceOnUse" /><linearGradient
       x1="264.68622"
       y1="720.32764"
       x2="434.32455"
       y2="721.15137"
       id="linearGradient8314"
       xlink:href="#linearGradient7646"
       gradientUnits="userSpaceOnUse" /><linearGradient
       x1="264.68622"
       y1="720.32764"
       x2="434.32455"
       y2="721.15137"
       id="linearGradient8316"
       xlink:href="#linearGradient7646"
       gradientUnits="userSpaceOnUse" /><linearGradient
       x1="264.68622"
       y1="720.32764"
       x2="434.32455"
       y2="721.15137"
       id="linearGradient8318"
       xlink:href="#linearGradient7646"
       gradientUnits="userSpaceOnUse" /><linearGradient
       x1="264.68622"
       y1="720.32764"
       x2="434.32455"
       y2="721.15137"
       id="linearGradient8320"
       xlink:href="#linearGradient7646"
       gradientUnits="userSpaceOnUse" /><linearGradient
       x1="264.68622"
       y1="720.32764"
       x2="434.32455"
       y2="721.15137"
       id="linearGradient8322"
       xlink:href="#linearGradient7646"
       gradientUnits="userSpaceOnUse" /><linearGradient
       x1="264.68622"
       y1="720.32764"
       x2="434.32455"
       y2="721.15137"
       id="linearGradient8324"
       xlink:href="#linearGradient7646"
       gradientUnits="userSpaceOnUse" /><linearGradient
       x1="264.68622"
       y1="720.32764"
       x2="434.32455"
       y2="721.15137"
       id="linearGradient8326"
       xlink:href="#linearGradient7646"
       gradientUnits="userSpaceOnUse" /><linearGradient
       x1="264.68622"
       y1="720.32764"
       x2="434.32455"
       y2="721.15137"
       id="linearGradient8328"
       xlink:href="#linearGradient7646"
       gradientUnits="userSpaceOnUse" /><linearGradient
       x1="264.68622"
       y1="720.32764"
       x2="434.32455"
       y2="721.15137"
       id="linearGradient8330"
       xlink:href="#linearGradient7646"
       gradientUnits="userSpaceOnUse" /><linearGradient
       x1="264.68622"
       y1="720.32764"
       x2="434.32455"
       y2="721.15137"
       id="linearGradient8332"
       xlink:href="#linearGradient7646"
       gradientUnits="userSpaceOnUse" /><linearGradient
       x1="264.68622"
       y1="720.32764"
       x2="434.32455"
       y2="721.15137"
       id="linearGradient8334"
       xlink:href="#linearGradient7646"
       gradientUnits="userSpaceOnUse" /><linearGradient
       x1="264.68622"
       y1="720.32764"
       x2="434.32455"
       y2="721.15137"
       id="linearGradient8336"
       xlink:href="#linearGradient7646"
       gradientUnits="userSpaceOnUse" /><linearGradient
       x1="264.68622"
       y1="720.32764"
       x2="434.32455"
       y2="721.15137"
       id="linearGradient8338"
       xlink:href="#linearGradient7646"
       gradientUnits="userSpaceOnUse" /><linearGradient
       x1="264.68622"
       y1="720.32764"
       x2="434.32455"
       y2="721.15137"
       id="linearGradient8340"
       xlink:href="#linearGradient7646"
       gradientUnits="userSpaceOnUse" /><linearGradient
       x1="264.68622"
       y1="720.32764"
       x2="434.32455"
       y2="721.15137"
       id="linearGradient8342"
       xlink:href="#linearGradient7646"
       gradientUnits="userSpaceOnUse" /><linearGradient
       x1="264.68622"
       y1="720.32764"
       x2="434.32455"
       y2="721.15137"
       id="linearGradient8344"
       xlink:href="#linearGradient7646"
       gradientUnits="userSpaceOnUse" /><linearGradient
       x1="264.68622"
       y1="720.32764"
       x2="434.32455"
       y2="721.15137"
       id="linearGradient8346"
       xlink:href="#linearGradient7646"
       gradientUnits="userSpaceOnUse" /><linearGradient
       x1="264.68622"
       y1="720.32764"
       x2="434.32455"
       y2="721.15137"
       id="linearGradient8348"
       xlink:href="#linearGradient7646"
       gradientUnits="userSpaceOnUse" /><linearGradient
       x1="264.68622"
       y1="720.32764"
       x2="434.32455"
       y2="721.15137"
       id="linearGradient8350"
       xlink:href="#linearGradient7646"
       gradientUnits="userSpaceOnUse" /><linearGradient
       x1="264.68622"
       y1="720.32764"
       x2="434.32455"
       y2="721.15137"
       id="linearGradient8352"
       xlink:href="#linearGradient7646"
       gradientUnits="userSpaceOnUse" /><linearGradient
       x1="264.68622"
       y1="720.32764"
       x2="434.32455"
       y2="721.15137"
       id="linearGradient8354"
       xlink:href="#linearGradient7646"
       gradientUnits="userSpaceOnUse" /><linearGradient
       x1="264.68622"
       y1="720.32764"
       x2="434.32455"
       y2="721.15137"
       id="linearGradient8356"
       xlink:href="#linearGradient7646"
       gradientUnits="userSpaceOnUse" /><linearGradient
       x1="264.68622"
       y1="720.32764"
       x2="434.32455"
       y2="721.15137"
       id="linearGradient8358"
       xlink:href="#linearGradient7646"
       gradientUnits="userSpaceOnUse" /><linearGradient
       x1="264.68622"
       y1="720.32764"
       x2="434.32455"
       y2="721.15137"
       id="linearGradient8360"
       xlink:href="#linearGradient7646"
       gradientUnits="userSpaceOnUse" /><linearGradient
       x1="264.68622"
       y1="720.32764"
       x2="434.32455"
       y2="721.15137"
       id="linearGradient8362"
       xlink:href="#linearGradient7646"
       gradientUnits="userSpaceOnUse" /><linearGradient
       x1="264.68622"
       y1="720.32764"
       x2="434.32455"
       y2="721.15137"
       id="linearGradient8364"
       xlink:href="#linearGradient7646"
       gradientUnits="userSpaceOnUse" /><linearGradient
       x1="264.68622"
       y1="720.32764"
       x2="434.32455"
       y2="721.15137"
       id="linearGradient8366"
       xlink:href="#linearGradient7646"
       gradientUnits="userSpaceOnUse" /><linearGradient
       x1="264.68622"
       y1="720.32764"
       x2="434.32455"
       y2="721.15137"
       id="linearGradient8368"
       xlink:href="#linearGradient7646"
       gradientUnits="userSpaceOnUse" /><linearGradient
       x1="264.68622"
       y1="720.32764"
       x2="434.32455"
       y2="721.15137"
       id="linearGradient8370"
       xlink:href="#linearGradient7646"
       gradientUnits="userSpaceOnUse" /><linearGradient
       x1="264.68622"
       y1="720.32764"
       x2="434.32455"
       y2="721.15137"
       id="linearGradient8372"
       xlink:href="#linearGradient7646"
       gradientUnits="userSpaceOnUse" /><linearGradient
       x1="264.68622"
       y1="720.32764"
       x2="434.32455"
       y2="721.15137"
       id="linearGradient8374"
       xlink:href="#linearGradient7646"
       gradientUnits="userSpaceOnUse" /><linearGradient
       x1="264.68622"
       y1="720.32764"
       x2="434.32455"
       y2="721.15137"
       id="linearGradient8376"
       xlink:href="#linearGradient7646"
       gradientUnits="userSpaceOnUse" /><linearGradient
       x1="264.68622"
       y1="720.32764"
       x2="434.32455"
       y2="721.15137"
       id="linearGradient8378"
       xlink:href="#linearGradient7646"
       gradientUnits="userSpaceOnUse" /><linearGradient
       x1="264.68622"
       y1="720.32764"
       x2="434.32455"
       y2="721.15137"
       id="linearGradient8380"
       xlink:href="#linearGradient7646"
       gradientUnits="userSpaceOnUse" /><linearGradient
       x1="264.68622"
       y1="720.32764"
       x2="434.32455"
       y2="721.15137"
       id="linearGradient8382"
       xlink:href="#linearGradient7646"
       gradientUnits="userSpaceOnUse" /><linearGradient
       x1="264.68622"
       y1="720.32764"
       x2="434.32455"
       y2="721.15137"
       id="linearGradient8384"
       xlink:href="#linearGradient7646"
       gradientUnits="userSpaceOnUse" /><linearGradient
       x1="264.68622"
       y1="720.32764"
       x2="434.32455"
       y2="721.15137"
       id="linearGradient8386"
       xlink:href="#linearGradient7646"
       gradientUnits="userSpaceOnUse" /><linearGradient
       x1="264.68622"
       y1="720.32764"
       x2="434.32455"
       y2="721.15137"
       id="linearGradient8388"
       xlink:href="#linearGradient7646"
       gradientUnits="userSpaceOnUse" /><linearGradient
       x1="264.68622"
       y1="720.32764"
       x2="434.32455"
       y2="721.15137"
       id="linearGradient8390"
       xlink:href="#linearGradient7646"
       gradientUnits="userSpaceOnUse" /><linearGradient
       x1="264.68622"
       y1="720.32764"
       x2="434.32455"
       y2="721.15137"
       id="linearGradient8392"
       xlink:href="#linearGradient7646"
       gradientUnits="userSpaceOnUse" /><linearGradient
       x1="264.68622"
       y1="720.32764"
       x2="434.32455"
       y2="721.15137"
       id="linearGradient8394"
       xlink:href="#linearGradient7646"
       gradientUnits="userSpaceOnUse" /><linearGradient
       x1="264.68622"
       y1="720.32764"
       x2="434.32455"
       y2="721.15137"
       id="linearGradient8396"
       xlink:href="#linearGradient7646"
       gradientUnits="userSpaceOnUse" /><linearGradient
       x1="264.68622"
       y1="720.32764"
       x2="434.32455"
       y2="721.15137"
       id="linearGradient8398"
       xlink:href="#linearGradient7646"
       gradientUnits="userSpaceOnUse" /><linearGradient
       x1="264.68622"
       y1="720.32764"
       x2="434.32455"
       y2="721.15137"
       id="linearGradient8400"
       xlink:href="#linearGradient7646"
       gradientUnits="userSpaceOnUse" /><linearGradient
       x1="264.68622"
       y1="720.32764"
       x2="434.32455"
       y2="721.15137"
       id="linearGradient8402"
       xlink:href="#linearGradient7646"
       gradientUnits="userSpaceOnUse" /><linearGradient
       x1="264.68622"
       y1="720.32764"
       x2="434.32455"
       y2="721.15137"
       id="linearGradient8404"
       xlink:href="#linearGradient7646"
       gradientUnits="userSpaceOnUse" /><linearGradient
       x1="264.68622"
       y1="720.32764"
       x2="434.32455"
       y2="721.15137"
       id="linearGradient8406"
       xlink:href="#linearGradient7646"
       gradientUnits="userSpaceOnUse" /><linearGradient
       x1="264.68622"
       y1="720.32764"
       x2="434.32455"
       y2="721.15137"
       id="linearGradient8408"
       xlink:href="#linearGradient7646"
       gradientUnits="userSpaceOnUse" /><linearGradient
       x1="264.68622"
       y1="720.32764"
       x2="434.32455"
       y2="721.15137"
       id="linearGradient8410"
       xlink:href="#linearGradient7646"
       gradientUnits="userSpaceOnUse" /><linearGradient
       x1="264.68622"
       y1="720.32764"
       x2="434.32455"
       y2="721.15137"
       id="linearGradient8412"
       xlink:href="#linearGradient7646"
       gradientUnits="userSpaceOnUse" /><linearGradient
       x1="264.68622"
       y1="720.32764"
       x2="434.32455"
       y2="721.15137"
       id="linearGradient8414"
       xlink:href="#linearGradient7646"
       gradientUnits="userSpaceOnUse" /><linearGradient
       x1="264.68622"
       y1="720.32764"
       x2="434.32455"
       y2="721.15137"
       id="linearGradient8416"
       xlink:href="#linearGradient7646"
       gradientUnits="userSpaceOnUse" /><linearGradient
       x1="238.97647"
       y1="723.36133"
       x2="459.25922"
       y2="723.36133"
       id="linearGradient8418"
       xlink:href="#linearGradient7646"
       gradientUnits="userSpaceOnUse" /><linearGradient
       x1="264.68622"
       y1="720.32764"
       x2="434.32455"
       y2="721.15137"
       id="linearGradient8420"
       xlink:href="#linearGradient7646"
       gradientUnits="userSpaceOnUse" /><linearGradient
       x1="264.68622"
       y1="720.32764"
       x2="434.32455"
       y2="721.15137"
       id="linearGradient8422"
       xlink:href="#linearGradient7646"
       gradientUnits="userSpaceOnUse" /><linearGradient
       x1="264.68622"
       y1="720.32764"
       x2="434.32455"
       y2="721.15137"
       id="linearGradient8424"
       xlink:href="#linearGradient7646"
       gradientUnits="userSpaceOnUse" /><linearGradient
       x1="264.68622"
       y1="720.32764"
       x2="434.32455"
       y2="721.15137"
       id="linearGradient8426"
       xlink:href="#linearGradient7646"
       gradientUnits="userSpaceOnUse" /><linearGradient
       x1="264.68622"
       y1="720.32764"
       x2="434.32455"
       y2="721.15137"
       id="linearGradient8428"
       xlink:href="#linearGradient7646"
       gradientUnits="userSpaceOnUse" /><linearGradient
       x1="264.68622"
       y1="720.32764"
       x2="434.32455"
       y2="721.15137"
       id="linearGradient8430"
       xlink:href="#linearGradient7646"
       gradientUnits="userSpaceOnUse" /><linearGradient
       x1="264.68622"
       y1="720.32764"
       x2="434.32455"
       y2="721.15137"
       id="linearGradient8432"
       xlink:href="#linearGradient7646"
       gradientUnits="userSpaceOnUse" /><linearGradient
       x1="264.68622"
       y1="720.32764"
       x2="434.32455"
       y2="721.15137"
       id="linearGradient8434"
       xlink:href="#linearGradient7646"
       gradientUnits="userSpaceOnUse" /><linearGradient
       x1="264.68622"
       y1="720.32764"
       x2="434.32455"
       y2="721.15137"
       id="linearGradient8436"
       xlink:href="#linearGradient7646"
       gradientUnits="userSpaceOnUse" /><linearGradient
       x1="264.68622"
       y1="720.32764"
       x2="434.32455"
       y2="721.15137"
       id="linearGradient8438"
       xlink:href="#linearGradient7646"
       gradientUnits="userSpaceOnUse" /><linearGradient
       x1="264.68622"
       y1="720.32764"
       x2="434.32455"
       y2="721.15137"
       id="linearGradient8440"
       xlink:href="#linearGradient7646"
       gradientUnits="userSpaceOnUse" /><linearGradient
       x1="264.68622"
       y1="720.32764"
       x2="434.32455"
       y2="721.15137"
       id="linearGradient8442"
       xlink:href="#linearGradient7646"
       gradientUnits="userSpaceOnUse" /><linearGradient
       x1="264.68622"
       y1="720.32764"
       x2="434.32455"
       y2="721.15137"
       id="linearGradient8444"
       xlink:href="#linearGradient7646"
       gradientUnits="userSpaceOnUse" /><linearGradient
       x1="264.68622"
       y1="720.32764"
       x2="434.32455"
       y2="721.15137"
       id="linearGradient8446"
       xlink:href="#linearGradient7646"
       gradientUnits="userSpaceOnUse" /><linearGradient
       x1="264.68622"
       y1="720.32764"
       x2="434.32455"
       y2="721.15137"
       id="linearGradient8448"
       xlink:href="#linearGradient7646"
       gradientUnits="userSpaceOnUse" /><linearGradient
       x1="264.68622"
       y1="720.32764"
       x2="434.32455"
       y2="721.15137"
       id="linearGradient8450"
       xlink:href="#linearGradient7646"
       gradientUnits="userSpaceOnUse" /><linearGradient
       x1="264.68622"
       y1="720.32764"
       x2="434.32455"
       y2="721.15137"
       id="linearGradient8452"
       xlink:href="#linearGradient7646"
       gradientUnits="userSpaceOnUse" /><linearGradient
       x1="264.68622"
       y1="720.32764"
       x2="434.32455"
       y2="721.15137"
       id="linearGradient8454"
       xlink:href="#linearGradient7646"
       gradientUnits="userSpaceOnUse" /><linearGradient
       x1="264.68622"
       y1="720.32764"
       x2="434.32455"
       y2="721.15137"
       id="linearGradient8456"
       xlink:href="#linearGradient7646"
       gradientUnits="userSpaceOnUse" /><linearGradient
       x1="264.68622"
       y1="720.32764"
       x2="434.32455"
       y2="721.15137"
       id="linearGradient8458"
       xlink:href="#linearGradient7646"
       gradientUnits="userSpaceOnUse" /><linearGradient
       x1="264.68622"
       y1="720.32764"
       x2="434.32455"
       y2="721.15137"
       id="linearGradient8460"
       xlink:href="#linearGradient7646"
       gradientUnits="userSpaceOnUse" /><linearGradient
       x1="264.68622"
       y1="720.32764"
       x2="434.32455"
       y2="721.15137"
       id="linearGradient8462"
       xlink:href="#linearGradient7646"
       gradientUnits="userSpaceOnUse" /><linearGradient
       x1="264.68622"
       y1="720.32764"
       x2="434.32455"
       y2="721.15137"
       id="linearGradient8464"
       xlink:href="#linearGradient7646"
       gradientUnits="userSpaceOnUse" /><linearGradient
       x1="264.68622"
       y1="720.32764"
       x2="434.32455"
       y2="721.15137"
       id="linearGradient8466"
       xlink:href="#linearGradient7646"
       gradientUnits="userSpaceOnUse" /><linearGradient
       x1="264.68622"
       y1="720.32764"
       x2="434.32455"
       y2="721.15137"
       id="linearGradient8468"
       xlink:href="#linearGradient7646"
       gradientUnits="userSpaceOnUse" /><linearGradient
       x1="264.68622"
       y1="720.32764"
       x2="434.32455"
       y2="721.15137"
       id="linearGradient8470"
       xlink:href="#linearGradient7646"
       gradientUnits="userSpaceOnUse" /><linearGradient
       x1="264.68622"
       y1="720.32764"
       x2="434.32455"
       y2="721.15137"
       id="linearGradient8472"
       xlink:href="#linearGradient7646"
       gradientUnits="userSpaceOnUse" /><linearGradient
       x1="264.68622"
       y1="720.32764"
       x2="434.32455"
       y2="721.15137"
       id="linearGradient8474"
       xlink:href="#linearGradient7646"
       gradientUnits="userSpaceOnUse" /><linearGradient
       x1="264.68622"
       y1="720.32764"
       x2="434.32455"
       y2="721.15137"
       id="linearGradient8476"
       xlink:href="#linearGradient7646"
       gradientUnits="userSpaceOnUse" /><linearGradient
       x1="264.68622"
       y1="720.32764"
       x2="434.32455"
       y2="721.15137"
       id="linearGradient8478"
       xlink:href="#linearGradient7646"
       gradientUnits="userSpaceOnUse" /><linearGradient
       x1="264.68622"
       y1="720.32764"
       x2="434.32455"
       y2="721.15137"
       id="linearGradient8480"
       xlink:href="#linearGradient7646"
       gradientUnits="userSpaceOnUse" /><linearGradient
       x1="264.68622"
       y1="720.32764"
       x2="434.32455"
       y2="721.15137"
       id="linearGradient8482"
       xlink:href="#linearGradient7646"
       gradientUnits="userSpaceOnUse" /><linearGradient
       x1="264.68622"
       y1="720.32764"
       x2="434.32455"
       y2="721.15137"
       id="linearGradient8484"
       xlink:href="#linearGradient7646"
       gradientUnits="userSpaceOnUse" /><linearGradient
       x1="264.68622"
       y1="720.32764"
       x2="434.32455"
       y2="721.15137"
       id="linearGradient8486"
       xlink:href="#linearGradient7646"
       gradientUnits="userSpaceOnUse" /><linearGradient
       x1="264.68622"
       y1="720.32764"
       x2="434.32455"
       y2="721.15137"
       id="linearGradient8488"
       xlink:href="#linearGradient7646"
       gradientUnits="userSpaceOnUse" /><linearGradient
       x1="264.68622"
       y1="720.32764"
       x2="434.32455"
       y2="721.15137"
       id="linearGradient8490"
       xlink:href="#linearGradient7646"
       gradientUnits="userSpaceOnUse" /><linearGradient
       x1="264.68622"
       y1="720.32764"
       x2="434.32455"
       y2="721.15137"
       id="linearGradient8492"
       xlink:href="#linearGradient7646"
       gradientUnits="userSpaceOnUse" /><linearGradient
       x1="264.68622"
       y1="720.32764"
       x2="434.32455"
       y2="721.15137"
       id="linearGradient8494"
       xlink:href="#linearGradient7646"
       gradientUnits="userSpaceOnUse" /><linearGradient
       x1="264.68622"
       y1="720.32764"
       x2="434.32455"
       y2="721.15137"
       id="linearGradient8496"
       xlink:href="#linearGradient7646"
       gradientUnits="userSpaceOnUse" /><linearGradient
       x1="264.68622"
       y1="720.32764"
       x2="434.32455"
       y2="721.15137"
       id="linearGradient8498"
       xlink:href="#linearGradient7646"
       gradientUnits="userSpaceOnUse" /><linearGradient
       x1="264.68622"
       y1="720.32764"
       x2="434.32455"
       y2="721.15137"
       id="linearGradient8500"
       xlink:href="#linearGradient7646"
       gradientUnits="userSpaceOnUse" /><linearGradient
       x1="264.68622"
       y1="720.32764"
       x2="434.32455"
       y2="721.15137"
       id="linearGradient8502"
       xlink:href="#linearGradient7646"
       gradientUnits="userSpaceOnUse" /><linearGradient
       x1="264.68622"
       y1="720.32764"
       x2="434.32455"
       y2="721.15137"
       id="linearGradient8504"
       xlink:href="#linearGradient7646"
       gradientUnits="userSpaceOnUse" /><linearGradient
       x1="264.68622"
       y1="720.32764"
       x2="434.32455"
       y2="721.15137"
       id="linearGradient8506"
       xlink:href="#linearGradient7646"
       gradientUnits="userSpaceOnUse" /><linearGradient
       x1="264.68622"
       y1="720.32764"
       x2="434.32455"
       y2="721.15137"
       id="linearGradient8508"
       xlink:href="#linearGradient7646"
       gradientUnits="userSpaceOnUse" /><linearGradient
       x1="264.68622"
       y1="720.32764"
       x2="434.32455"
       y2="721.15137"
       id="linearGradient8510"
       xlink:href="#linearGradient7646"
       gradientUnits="userSpaceOnUse" /><linearGradient
       x1="264.68622"
       y1="720.32764"
       x2="434.32455"
       y2="721.15137"
       id="linearGradient8512"
       xlink:href="#linearGradient7646"
       gradientUnits="userSpaceOnUse" /><linearGradient
       x1="264.68622"
       y1="720.32764"
       x2="434.32455"
       y2="721.15137"
       id="linearGradient8514"
       xlink:href="#linearGradient7646"
       gradientUnits="userSpaceOnUse" /><linearGradient
       x1="264.68622"
       y1="720.32764"
       x2="434.32455"
       y2="721.15137"
       id="linearGradient8516"
       xlink:href="#linearGradient7646"
       gradientUnits="userSpaceOnUse" /><linearGradient
       x1="264.68622"
       y1="720.32764"
       x2="434.32455"
       y2="721.15137"
       id="linearGradient8518"
       xlink:href="#linearGradient7646"
       gradientUnits="userSpaceOnUse" /><linearGradient
       x1="264.68622"
       y1="720.32764"
       x2="434.32455"
       y2="721.15137"
       id="linearGradient8520"
       xlink:href="#linearGradient7646"
       gradientUnits="userSpaceOnUse" /><linearGradient
       x1="264.68622"
       y1="720.32764"
       x2="434.32455"
       y2="721.15137"
       id="linearGradient8522"
       xlink:href="#linearGradient7646"
       gradientUnits="userSpaceOnUse" /><linearGradient
       x1="264.68622"
       y1="720.32764"
       x2="434.32455"
       y2="721.15137"
       id="linearGradient8524"
       xlink:href="#linearGradient7646"
       gradientUnits="userSpaceOnUse" /><linearGradient
       x1="264.68622"
       y1="720.32764"
       x2="434.32455"
       y2="721.15137"
       id="linearGradient8526"
       xlink:href="#linearGradient7646"
       gradientUnits="userSpaceOnUse" /><linearGradient
       x1="264.68622"
       y1="720.32764"
       x2="434.32455"
       y2="721.15137"
       id="linearGradient8528"
       xlink:href="#linearGradient7646"
       gradientUnits="userSpaceOnUse" /><linearGradient
       x1="264.68622"
       y1="720.32764"
       x2="434.32455"
       y2="721.15137"
       id="linearGradient8530"
       xlink:href="#linearGradient7646"
       gradientUnits="userSpaceOnUse" /><linearGradient
       x1="264.68622"
       y1="720.32764"
       x2="434.32455"
       y2="721.15137"
       id="linearGradient8532"
       xlink:href="#linearGradient7646"
       gradientUnits="userSpaceOnUse" /><linearGradient
       x1="264.68622"
       y1="720.32764"
       x2="434.32455"
       y2="721.15137"
       id="linearGradient8534"
       xlink:href="#linearGradient7646"
       gradientUnits="userSpaceOnUse" /><linearGradient
       x1="264.68622"
       y1="720.32764"
       x2="434.32455"
       y2="721.15137"
       id="linearGradient8536"
       xlink:href="#linearGradient7646"
       gradientUnits="userSpaceOnUse" /><linearGradient
       x1="264.68622"
       y1="720.32764"
       x2="434.32455"
       y2="721.15137"
       id="linearGradient8538"
       xlink:href="#linearGradient7646"
       gradientUnits="userSpaceOnUse" /><linearGradient
       x1="264.68622"
       y1="720.32764"
       x2="434.32455"
       y2="721.15137"
       id="linearGradient8540"
       xlink:href="#linearGradient7646"
       gradientUnits="userSpaceOnUse" /><linearGradient
       x1="264.68622"
       y1="720.32764"
       x2="434.32455"
       y2="721.15137"
       id="linearGradient8542"
       xlink:href="#linearGradient7646"
       gradientUnits="userSpaceOnUse" /><linearGradient
       x1="264.68622"
       y1="720.32764"
       x2="434.32455"
       y2="721.15137"
       id="linearGradient8544"
       xlink:href="#linearGradient7646"
       gradientUnits="userSpaceOnUse" /><linearGradient
       x1="264.68622"
       y1="720.32764"
       x2="434.32455"
       y2="721.15137"
       id="linearGradient8546"
       xlink:href="#linearGradient7646"
       gradientUnits="userSpaceOnUse" /><linearGradient
       x1="264.68622"
       y1="720.32764"
       x2="434.32455"
       y2="721.15137"
       id="linearGradient8548"
       xlink:href="#linearGradient7646"
       gradientUnits="userSpaceOnUse" /><linearGradient
       x1="264.68622"
       y1="720.32764"
       x2="434.32455"
       y2="721.15137"
       id="linearGradient8550"
       xlink:href="#linearGradient7646"
       gradientUnits="userSpaceOnUse" /><linearGradient
       x1="264.68622"
       y1="720.32764"
       x2="434.32455"
       y2="721.15137"
       id="linearGradient8552"
       xlink:href="#linearGradient7646"
       gradientUnits="userSpaceOnUse" /><linearGradient
       x1="264.68622"
       y1="720.32764"
       x2="434.32455"
       y2="721.15137"
       id="linearGradient8554"
       xlink:href="#linearGradient7646"
       gradientUnits="userSpaceOnUse" /><linearGradient
       x1="264.68622"
       y1="720.32764"
       x2="434.32455"
       y2="721.15137"
       id="linearGradient8556"
       xlink:href="#linearGradient7646"
       gradientUnits="userSpaceOnUse" /><linearGradient
       x1="264.68622"
       y1="720.32764"
       x2="434.32455"
       y2="721.15137"
       id="linearGradient8558"
       xlink:href="#linearGradient7646"
       gradientUnits="userSpaceOnUse" /><linearGradient
       x1="264.68622"
       y1="720.32764"
       x2="434.32455"
       y2="721.15137"
       id="linearGradient8560"
       xlink:href="#linearGradient7646"
       gradientUnits="userSpaceOnUse" /><linearGradient
       x1="264.68622"
       y1="720.32764"
       x2="434.32455"
       y2="721.15137"
       id="linearGradient8562"
       xlink:href="#linearGradient7646"
       gradientUnits="userSpaceOnUse" /><linearGradient
       x1="264.68622"
       y1="720.32764"
       x2="434.32455"
       y2="721.15137"
       id="linearGradient8564"
       xlink:href="#linearGradient7646"
       gradientUnits="userSpaceOnUse" /><linearGradient
       x1="264.68622"
       y1="720.32764"
       x2="434.32455"
       y2="721.15137"
       id="linearGradient8566"
       xlink:href="#linearGradient7646"
       gradientUnits="userSpaceOnUse" /><linearGradient
       x1="264.68622"
       y1="720.32764"
       x2="434.32455"
       y2="721.15137"
       id="linearGradient8568"
       xlink:href="#linearGradient7646"
       gradientUnits="userSpaceOnUse" /><linearGradient
       x1="264.68622"
       y1="720.32764"
       x2="434.32455"
       y2="721.15137"
       id="linearGradient8570"
       xlink:href="#linearGradient7646"
       gradientUnits="userSpaceOnUse" /><linearGradient
       x1="264.68622"
       y1="720.32764"
       x2="434.32455"
       y2="721.15137"
       id="linearGradient8572"
       xlink:href="#linearGradient7646"
       gradientUnits="userSpaceOnUse" /><linearGradient
       x1="264.68622"
       y1="720.32764"
       x2="434.32455"
       y2="721.15137"
       id="linearGradient8574"
       xlink:href="#linearGradient7646"
       gradientUnits="userSpaceOnUse" /><linearGradient
       x1="264.68622"
       y1="720.32764"
       x2="434.32455"
       y2="721.15137"
       id="linearGradient8576"
       xlink:href="#linearGradient7646"
       gradientUnits="userSpaceOnUse" /><linearGradient
       x1="-594.24054"
       y1="926.8172"
       x2="-327.86575"
       y2="925.7193"
       id="linearGradient8578"
       xlink:href="#linearGradient8052"
       gradientUnits="userSpaceOnUse"
       gradientTransform="matrix(0.08246854,0,0,0.1105408,-2173.4778,1050.6112)" /><linearGradient
       x1="-311.18658"
       y1="2764.9487"
       x2="-310.70111"
       y2="2739.2188"
       id="linearGradient8844"
       xlink:href="#linearGradient8838"
       gradientUnits="userSpaceOnUse" /><linearGradient
       x1="-311.18658"
       y1="2764.9487"
       x2="-310.9924"
       y2="2739.0247"
       id="linearGradient8846"
       xlink:href="#linearGradient8838"
       gradientUnits="userSpaceOnUse" /></defs><g
     transform="matrix(0,-1.25,-1.25,0,1755.8496,441.87536)"
     id="g10"><g
       transform="matrix(1.5018792,0,0,1.5018792,5.4412855,810.7766)"
       id="g3181"><g
         id="g150"><g
           clip-path="url(#clipPath154)"
           id="g152"><path
             d="m 203.802,361.673 c 0.609,0 0.142,0 0.753,0.008 10.51,0.068 20.445,0.769 27.194,1.592 -0.082,10.007 -1.065,19.456 -2.64,26.459 -0.62,2.765 -2.63,3.796 -4.233,4.094 -4.107,0.768 -11.821,1.737 -20.076,1.614 -0.89,-0.008 -0.723,-0.005 -1.621,-0.041 1.628,-1.703 16.903,-17.424 16.903,-17.424 l -16.28,-16.302"
             id="path158"
             style="fill:#611c66;fill-opacity:1;fill-rule:nonzero;stroke:none" /></g></g><path
         d="m 199.064,362.742 c -0.047,0.505 -0.46,0.936 -0.978,0.995 -0.556,0.06 -1.126,0.13 -1.126,0.13 l 0,0.015 c 0,0.015 0,-0.025 0,-0.003 0.008,8.433 0.126,19.141 1.806,31.381 l 16.641,-17.183 -16.249,-16.259 -0.094,0.924"
         id="path160"
         style="fill:#611c66;fill-opacity:1;fill-rule:nonzero;stroke:none" /><path
         d="m 196.968,353.693 c 0.014,-2.106 0.204,-19.555 1.798,-31.141 6.376,-0.671 18.668,-0.158 26.11,1.231 1.603,0.3 3.59,1.335 4.233,4.104 1.649,7.073 2.567,16.424 2.64,26.4 -7.138,0.862 -17.029,1.594 -28.214,1.594 l -4.273,-0.007 -0.077,0 -0.098,-1.062 c -0.046,-0.509 -0.483,-0.909 -0.995,-0.983 -0.505,-0.069 -1.132,-0.133 -1.132,-0.133 l 0.008,-0.003"
         id="path162"
         style="fill:#611c66;fill-opacity:1;fill-rule:nonzero;stroke:none" /><path
         d="m 188.844,361.693 0.106,1.06 c 0.048,0.515 0.483,0.902 0.999,0.958 0.478,0.045 1.132,0.135 1.132,0.135 l 0.006,-10e-4 c 0,0.07 0,-0.039 0,0.042 0,8.409 -0.06,17.892 -1.737,30.13 -9.536,-1.668 -31.093,-12.566 -40.32,-30.11 7.139,-0.868 24.546,-2.234 35.72,-2.234 l 4.033,0.017 0.059,0 0.012,10e-4 -0.01,0.002"
         id="path164"
         style="fill:#611c66;fill-opacity:1;fill-rule:nonzero;stroke:none" /><path
         d="m 191.087,353.74 c 0,-0.047 0,0.053 0,0 0,-8.421 -0.054,-18.001 -1.737,-30.267 -9.536,1.665 -31.093,12.563 -40.32,30.104 7.139,0.869 24.546,2.316 35.72,2.316 l 4.104,-0.065 0.002,-0.005 0.099,-1.005 c 0.05,-0.511 0.481,-0.873 0.994,-0.937 0.466,-0.052 1.132,-0.136 1.132,-0.136 l 0.006,-0.005"
         id="path166"
         style="fill:#611c66;fill-opacity:1;fill-rule:nonzero;stroke:none" /><path
         d="m 209.516,379.605 c 0.004,-0.547 0.557,-1.228 0.593,-1.315 l 0.096,0.042 c -0.052,0.117 -0.306,0.633 -0.306,0.934 0,0.386 0.353,0.389 0.63,0.314 -0.273,0.219 -0.368,0.439 -0.652,0.439 -0.178,0 -0.366,-0.103 -0.361,-0.414 z m 1.476,-2.078 c -0.061,0.094 -0.107,0.269 -0.121,0.349 0.074,0.043 0.226,0.075 0.308,0.029 0.031,-0.018 0.031,-0.52 0.019,-0.641 -0.084,0.122 -0.132,0.147 -0.206,0.263 z m -4.19,-2.911 c 0.377,-0.266 0.274,-0.739 0.815,-0.739 0.585,0 0.734,0.83 1.321,0.939 -0.038,0.022 -0.034,0.021 -0.099,0.038 -0.524,0.093 -0.826,-0.288 -1.098,-0.288 -0.18,0 -0.544,0.124 -0.777,0.395 0.074,-0.038 0.268,-0.152 0.445,-0.132 0.125,0.017 0.252,0.076 0.265,0.323 0.019,0.276 -0.328,0.46 -0.387,0.77 -0.165,-0.241 0.059,-0.567 -0.295,-0.557 -0.41,0.018 -0.725,0.503 -1.362,0.503 -0.961,0 -1.313,-0.669 -1.86,-0.669 -0.307,0 -0.555,0.229 -0.555,0.496 0,0.282 0.191,0.492 0.488,0.575 0.155,0.032 0.527,0.09 0.967,0.328 0.292,0.153 1.018,0.506 1.779,0.506 0.555,0 0.698,-0.09 0.918,-0.245 -0.069,-0.074 -0.15,-0.247 -0.259,-0.353 0.398,0.052 0.706,-0.089 0.863,-0.151 -0.102,-0.053 -0.187,-0.218 -0.264,-0.339 0.211,0.034 0.593,-0.213 0.986,-0.047 -0.061,-0.162 -0.185,-0.377 -0.242,-0.49 0.176,0.117 0.891,0.264 1.363,0.67 -0.033,-0.199 0.084,-0.331 -0.009,-0.553 0.363,0.133 0.524,0.32 0.622,0.622 0.056,-0.122 0.442,-0.311 0.622,-0.368 -0.07,0.09 -0.097,0.387 -0.079,0.555 0.073,-0.13 0.365,-0.324 0.604,-0.324 -0.069,0.085 -0.139,0.425 -0.139,0.531 0.143,-0.057 0.494,0.033 0.539,0.247 -0.28,-0.114 -0.539,0.243 -0.539,0.557 0,0.111 0.009,0.346 0.009,0.408 0,0.215 -0.05,0.242 -0.175,0.295 -0.122,0.052 -0.203,0.116 -0.277,0.35 -0.031,0.11 -0.078,0.296 -0.102,0.41 -0.022,0.137 -0.159,0.245 -0.325,0.176 -0.036,-0.021 -0.036,-0.021 -0.07,-0.026 -0.098,-0.04 -0.123,-0.056 -0.166,-0.076 -0.036,-0.016 -0.182,-0.06 -0.233,-0.08 0.109,-0.016 0.2,-0.05 0.239,-0.154 0.049,-0.14 0.049,-0.166 0.079,-0.265 0.036,-0.13 -0.056,-0.248 -0.209,-0.296 -0.321,-0.092 -0.477,0.109 -0.477,0.255 0,0.074 -0.02,0.174 -0.02,0.207 0,0.07 -0.038,0.227 -0.238,0.227 -0.098,0 -0.202,-0.04 -0.321,-0.004 0.241,-0.356 0.288,-0.727 0.305,-0.956 -0.409,0.127 -0.734,0.136 -0.665,0.789 0.013,0.104 0.016,0.28 0.034,0.406 -0.139,-0.152 -0.146,-0.093 -0.366,-0.129 0.033,0.166 0.09,0.396 0.083,0.578 -0.155,-0.161 -0.315,-0.125 -0.462,-0.225 0,0.13 0.113,0.444 0.187,0.695 0.075,0.262 0.168,0.506 0.26,0.69 0.3,0.572 0.489,0.271 0.77,0.279 0.104,10e-4 0.259,0.109 0.282,0.277 0.109,0.101 0.179,0.224 0.184,0.521 -0.033,-0.148 -0.08,-0.218 -0.241,-0.223 -0.061,0.062 -0.201,0.086 -0.345,0.044 -0.021,0.012 -0.028,0.027 -0.056,0.055 0.063,0.055 0.143,0.217 -0.009,0.418 0.037,0.085 0.07,0.177 -0.134,0.448 0.061,-0.216 0.04,-0.276 -0.048,-0.372 -0.228,0.001 -0.278,-0.172 -0.296,-0.307 -0.077,0 -0.019,0 -0.08,0.012 0.009,0.055 -0.036,0.163 -0.152,0.219 -0.013,0.085 -0.195,0.361 -0.339,0.387 0.104,-0.142 0.141,-0.235 0.111,-0.371 -0.211,0 -0.237,-0.268 -0.237,-0.364 0,-0.083 0.036,-0.183 0.049,-0.225 0,-0.405 -0.188,-0.405 -0.277,-0.405 -0.097,0 -0.353,0.088 -0.43,0.215 -0.039,-0.374 0.09,-0.577 0.087,-0.771 -0.155,0.098 -0.358,-0.011 -0.561,0.169 0.014,-0.362 0.46,-0.809 0.46,-1.173 0,-0.126 0.005,-0.142 -0.037,-0.301 -0.498,-0.083 -1.124,0.997 -1.124,1.669 0,0.311 0.019,0.615 0.213,0.648 0.168,0.029 0.306,0.131 0.206,0.43 0.083,0.14 0.01,0.344 -0.167,0.517 0.036,-0.102 0.115,-0.217 -0.009,-0.325 -0.13,0.014 -0.24,-0.06 -0.289,-0.149 -0.035,0.002 -0.035,0.017 -0.066,0.032 0,0.131 -0.045,0.306 -0.175,0.353 -0.052,0.135 -0.224,0.25 -0.43,0.273 0.183,-0.124 0.2,-0.162 0.195,-0.307 -0.111,-0.057 -0.124,-0.249 -0.083,-0.377 l -0.056,-0.021 c -0.051,0.038 -0.13,0.134 -0.351,0.084 -0.08,0.05 -0.14,0.126 -0.472,0.05 0.268,-0.064 0.287,-0.142 0.349,-0.23 -0.062,-0.235 0.094,-0.386 0.205,-0.43 0.101,-0.049 0.166,-0.229 0.166,-0.39 0,-0.286 -0.226,-0.434 -0.482,-0.494 0.219,-0.09 0.477,-0.234 0.477,-0.427 0,-0.106 -0.067,-0.19 -0.161,-0.241 0.203,-0.124 0.526,-0.357 0.585,-0.604 -0.212,-0.031 -0.439,-0.132 -0.585,-0.334 -0.271,-0.397 -0.264,-0.663 -0.77,-1.078 -0.053,0.042 -0.106,0.074 -0.106,0.358 0,0.196 0.373,0.4 0.373,1.285 0,0.288 -0.463,0.725 -0.703,0.725 -0.248,0 -0.775,-0.31 -0.959,-0.31 -0.176,0 -0.302,0.136 -0.302,0.3 0,0.303 0.09,0.629 0.338,0.768 0.087,0.025 0.155,0.117 0.155,0.261 0,0.073 -0.014,0.221 -0.094,0.272 -0.022,0.127 -0.086,0.3 -0.289,0.378 0.069,-0.078 0.126,-0.188 0.085,-0.304 -0.248,0.007 -0.256,-0.177 -0.28,-0.238 0,0 0.01,-0.031 -0.02,-0.01 -0.027,0.023 -0.041,0.006 -0.068,0.02 0.045,0.2 -0.085,0.396 -0.228,0.396 -0.059,0.092 -0.273,0.221 -0.461,0.197 0.188,-0.092 0.242,-0.175 0.259,-0.264 -0.138,-0.099 -0.125,-0.329 0,-0.478 -0.048,-0.031 -0.023,-0.02 -0.058,-0.049 -0.051,0.099 -0.249,0.111 -0.339,0.089 -0.073,0.059 -0.237,0.128 -0.417,0.075 0.12,-0.028 0.216,-0.108 0.296,-0.204 -0.02,-0.068 -0.056,-0.049 -0.056,-0.195 0,-0.237 0.173,-0.262 0.262,-0.297 0.312,-0.345 0.021,-0.73 -0.164,-0.737 0.103,-0.146 0.193,-0.192 0.415,-0.269 0.176,-0.198 0.091,-0.448 -0.064,-0.625 0.177,-0.027 0.268,0.003 0.44,0.098 0.125,0.07 0.167,0.109 0.364,0.109 0.188,0 0.417,-0.133 0.417,-0.362 0,-0.299 -0.191,-0.331 -0.191,-0.628 0,-0.114 0,-0.092 0,-0.167 -0.188,0.215 -0.457,0.428 -0.928,0.418 -0.278,-0.007 -0.682,-0.418 -0.883,-0.579 -0.262,-0.209 -0.378,-0.122 -0.48,-0.081 -0.059,0.027 -0.069,0.032 -0.131,0.081 -0.062,0.047 -0.235,0.229 -0.235,0.434 0,0.2 0.088,0.398 0.175,0.483 0.146,0.147 0.102,0.401 -0.156,0.527 -0.047,0.113 -0.246,0.266 -0.439,0.266 0.082,-0.026 0.214,-0.179 0.186,-0.289 -0.068,-0.04 -0.118,-0.14 -0.118,-0.259 -0.012,-0.004 -0.03,-0.012 -0.068,-0.012 -0.057,0.14 -0.229,0.188 -0.302,0.159 -0.046,0.055 -0.172,0.161 -0.512,0.112 0.143,-0.02 0.263,-0.121 0.293,-0.202 -0.091,-0.207 0.01,-0.295 0.084,-0.375 l -0.041,-0.059 c -0.111,0.044 -0.241,0.064 -0.309,-0.092 -0.225,0.055 -0.308,0.032 -0.436,-0.104 0.154,0.005 0.241,0.045 0.409,-0.111 0.023,-0.206 0.11,-0.317 0.34,-0.322 0.085,-0.009 0.351,-0.309 0.351,-0.454 0,-0.147 -0.116,-0.23 -0.248,-0.282 0.164,-0.119 0.314,-0.074 0.423,-0.176 0.089,-0.089 0.184,-0.24 0.016,-0.576 0.261,0.042 0.461,0.03 0.625,0.377 0.141,-0.124 0.216,-0.347 0.23,-0.556 0.185,0.143 0.328,0.527 0.433,0.63 0.101,0.108 0.283,0.212 0.43,0.212 0.553,0 0.489,-0.957 1.327,-0.957 -0.106,-0.171 -0.15,-0.368 -0.15,-0.632 0,-0.426 0.305,-0.747 0.956,-0.838 0.155,-0.012 0.232,-0.057 0.322,-0.088 0.08,-0.039 0.248,-0.17 0.541,-0.17 0.259,0 0.4,0.083 0.554,0.213 -0.092,-0.02 -0.163,-0.017 -0.238,0.003 -0.071,0.019 -0.252,0.169 -0.353,0.194 -0.095,0.022 -0.212,0.043 -0.354,0.043 0.103,0.041 0.171,0.073 0.25,0.097 0.292,0.136 0.379,-0.153 0.768,-0.153 0.18,0 0.279,0.026 0.513,0.152 -0.095,-0.013 -0.218,0.035 -0.273,0.091 -0.065,0.058 -0.283,0.176 -0.608,0.154 0.922,0.384 1.492,-0.258 1.492,-0.491 0,-0.157 -0.071,-0.27 -0.226,-0.27 -0.135,0 -0.292,0.106 -0.486,0.05 0.067,-0.021 0.114,-0.055 0.182,-0.101 0.129,-0.094 0.304,-0.54 0.596,-0.54 0.332,0 0.391,0.333 0.273,0.623"
         id="path168"
         style="fill:#ffffff;fill-opacity:1;fill-rule:nonzero;stroke:none" /><path
         d="m 226.519,371.571 c 0.01,-0.584 0.585,-1.307 0.627,-1.4 l 0.102,0.05 c -0.058,0.118 -0.328,0.673 -0.328,0.987 0,0.412 0.374,0.414 0.669,0.333 -0.291,0.24 -0.391,0.466 -0.687,0.466 -0.191,0 -0.383,-0.112 -0.383,-0.436 z m 1.563,-2.205 c -0.065,0.102 -0.118,0.288 -0.124,0.369 0.072,0.048 0.229,0.081 0.327,0.033 0.025,-0.02 0.023,-0.559 0.015,-0.682 -0.091,0.129 -0.144,0.158 -0.218,0.28 z m -4.446,-3.086 c 0.397,-0.286 0.292,-0.783 0.873,-0.783 0.609,0 0.773,0.877 1.397,0.999 -0.05,0.016 -0.044,0.013 -0.112,0.029 -0.555,0.107 -0.875,-0.296 -1.158,-0.296 -0.198,0 -0.579,0.127 -0.824,0.417 0.074,-0.04 0.285,-0.159 0.465,-0.139 0.139,0.014 0.275,0.075 0.293,0.332 0.017,0.296 -0.355,0.497 -0.419,0.826 -0.171,-0.258 0.064,-0.605 -0.315,-0.595 -0.43,0.012 -0.761,0.537 -1.439,0.537 -1.021,0 -1.394,-0.712 -1.978,-0.712 -0.321,0 -0.587,0.24 -0.587,0.532 0,0.3 0.207,0.519 0.521,0.597 0.158,0.041 0.562,0.102 1.029,0.356 0.301,0.162 1.078,0.537 1.882,0.537 0.59,0 0.74,-0.09 0.968,-0.254 -0.066,-0.084 -0.158,-0.269 -0.271,-0.379 0.421,0.054 0.75,-0.092 0.919,-0.162 -0.113,-0.057 -0.203,-0.231 -0.285,-0.363 0.221,0.039 0.629,-0.218 1.045,-0.043 -0.058,-0.174 -0.196,-0.409 -0.256,-0.521 0.193,0.121 0.948,0.284 1.45,0.709 -0.032,-0.207 0.086,-0.347 -0.012,-0.588 0.384,0.144 0.556,0.349 0.667,0.661 0.057,-0.13 0.464,-0.336 0.651,-0.391 -0.079,0.094 -0.107,0.408 -0.081,0.584 0.067,-0.137 0.383,-0.336 0.635,-0.336 -0.072,0.084 -0.136,0.45 -0.136,0.56 0.143,-0.06 0.518,0.037 0.563,0.269 -0.295,-0.123 -0.563,0.25 -0.563,0.587 0,0.116 0.007,0.365 0.007,0.434 0,0.225 -0.057,0.257 -0.189,0.311 -0.126,0.048 -0.22,0.123 -0.294,0.367 -0.035,0.118 -0.08,0.316 -0.111,0.435 -0.027,0.147 -0.17,0.265 -0.338,0.188 -0.044,-0.014 -0.044,-0.014 -0.076,-0.028 -0.104,-0.039 -0.134,-0.06 -0.179,-0.08 -0.047,-0.019 -0.195,-0.063 -0.247,-0.087 0.118,-0.008 0.204,-0.044 0.254,-0.164 0.055,-0.146 0.053,-0.176 0.083,-0.277 0.039,-0.141 -0.063,-0.267 -0.22,-0.311 -0.338,-0.097 -0.51,0.11 -0.51,0.266 0,0.078 -0.019,0.182 -0.019,0.218 0,0.077 -0.038,0.24 -0.251,0.24 -0.112,0 -0.209,-0.036 -0.343,0 0.255,-0.38 0.306,-0.781 0.329,-1.014 -0.438,0.131 -0.783,0.141 -0.711,0.835 0.014,0.106 0.014,0.298 0.038,0.431 -0.147,-0.157 -0.147,-0.096 -0.393,-0.137 0.034,0.18 0.106,0.415 0.094,0.608 -0.168,-0.167 -0.329,-0.123 -0.496,-0.225 0,0.129 0.129,0.461 0.202,0.729 0.082,0.273 0.173,0.544 0.28,0.725 0.313,0.615 0.509,0.292 0.812,0.3 0.114,0.005 0.277,0.117 0.302,0.304 0.111,0.101 0.186,0.22 0.193,0.544 -0.035,-0.158 -0.085,-0.23 -0.25,-0.238 -0.068,0.07 -0.218,0.092 -0.372,0.049 -0.021,0.012 -0.028,0.031 -0.062,0.059 0.07,0.065 0.157,0.233 0,0.442 0.034,0.088 0.067,0.191 -0.146,0.475 0.06,-0.227 0.038,-0.29 -0.056,-0.396 -0.239,0.007 -0.293,-0.187 -0.307,-0.321 -0.079,0 -0.02,0 -0.085,0.011 0.009,0.06 -0.047,0.178 -0.164,0.237 -0.015,0.082 -0.212,0.38 -0.358,0.404 0.108,-0.146 0.143,-0.25 0.119,-0.393 -0.227,0 -0.25,-0.284 -0.25,-0.385 0,-0.083 0.036,-0.199 0.047,-0.24 0,-0.429 -0.197,-0.429 -0.296,-0.429 -0.091,0 -0.379,0.096 -0.453,0.227 -0.037,-0.4 0.095,-0.608 0.09,-0.818 -0.161,0.107 -0.378,-0.01 -0.59,0.177 0.004,-0.375 0.488,-0.858 0.488,-1.24 0,-0.135 0.006,-0.155 -0.039,-0.329 -0.529,-0.079 -1.199,1.064 -1.199,1.782 0,0.333 0.025,0.648 0.231,0.688 0.176,0.023 0.322,0.135 0.217,0.449 0.086,0.151 0.015,0.366 -0.177,0.553 0.04,-0.105 0.118,-0.232 -0.014,-0.349 -0.135,0.023 -0.255,-0.058 -0.305,-0.154 -0.027,0.002 -0.027,0.017 -0.067,0.031 0,0.146 -0.054,0.323 -0.182,0.379 -0.056,0.137 -0.24,0.264 -0.461,0.29 0.192,-0.131 0.212,-0.177 0.203,-0.325 -0.113,-0.06 -0.131,-0.264 -0.079,-0.403 l -0.066,-0.029 c -0.054,0.048 -0.139,0.145 -0.368,0.094 -0.085,0.051 -0.151,0.14 -0.5,0.051 0.279,-0.064 0.302,-0.147 0.367,-0.236 -0.065,-0.252 0.106,-0.413 0.211,-0.467 0.107,-0.044 0.185,-0.237 0.185,-0.408 0,-0.306 -0.25,-0.465 -0.512,-0.518 0.233,-0.1 0.503,-0.25 0.503,-0.458 0,-0.117 -0.07,-0.205 -0.175,-0.259 0.221,-0.123 0.57,-0.38 0.632,-0.64 -0.234,-0.031 -0.475,-0.138 -0.623,-0.35 -0.29,-0.425 -0.28,-0.709 -0.822,-1.149 -0.044,0.048 -0.11,0.09 -0.11,0.383 0,0.213 0.396,0.43 0.396,1.37 0,0.307 -0.496,0.76 -0.748,0.76 -0.263,0 -0.821,-0.322 -1.014,-0.322 -0.194,0 -0.321,0.131 -0.321,0.307 0,0.333 0.092,0.67 0.356,0.824 0.097,0.023 0.165,0.121 0.165,0.272 0,0.08 -0.01,0.237 -0.104,0.284 -0.015,0.137 -0.083,0.32 -0.303,0.405 0.074,-0.085 0.136,-0.203 0.087,-0.321 -0.252,0.01 -0.265,-0.192 -0.294,-0.253 0,0 0.014,-0.035 -0.019,-0.009 -0.027,0.027 -0.052,0.002 -0.072,0.019 0.048,0.21 -0.088,0.422 -0.239,0.422 -0.064,0.098 -0.287,0.228 -0.494,0.204 0.202,-0.094 0.262,-0.181 0.283,-0.268 -0.159,-0.109 -0.14,-0.363 -0.001,-0.515 -0.052,-0.033 -0.031,-0.017 -0.065,-0.055 -0.06,0.106 -0.273,0.116 -0.358,0.096 -0.08,0.066 -0.25,0.135 -0.447,0.085 0.131,-0.036 0.229,-0.117 0.323,-0.223 -0.03,-0.063 -0.06,-0.052 -0.06,-0.201 0,-0.252 0.184,-0.284 0.268,-0.32 0.339,-0.358 0.016,-0.762 -0.178,-0.781 0.116,-0.147 0.207,-0.202 0.451,-0.281 0.185,-0.215 0.098,-0.483 -0.073,-0.664 0.191,-0.026 0.287,0 0.47,0.11 0.134,0.067 0.174,0.1 0.386,0.1 0.202,0 0.439,-0.135 0.439,-0.372 0,-0.324 -0.2,-0.352 -0.2,-0.669 0,-0.118 0,-0.098 0,-0.172 -0.198,0.216 -0.489,0.451 -0.983,0.441 -0.303,-0.005 -0.726,-0.441 -0.942,-0.614 -0.278,-0.22 -0.4,-0.126 -0.506,-0.084 -0.059,0.025 -0.066,0.03 -0.14,0.084 -0.072,0.053 -0.245,0.243 -0.245,0.453 0,0.219 0.094,0.43 0.18,0.52 0.156,0.153 0.109,0.413 -0.167,0.554 -0.046,0.127 -0.252,0.288 -0.467,0.288 0.092,-0.036 0.232,-0.194 0.206,-0.309 -0.077,-0.049 -0.127,-0.149 -0.127,-0.269 -0.024,-0.01 -0.034,-0.02 -0.074,-0.02 -0.066,0.143 -0.237,0.199 -0.319,0.168 -0.057,0.062 -0.183,0.175 -0.551,0.121 0.159,-0.021 0.287,-0.133 0.322,-0.217 -0.104,-0.215 0.005,-0.308 0.089,-0.396 l -0.045,-0.066 c -0.122,0.056 -0.259,0.074 -0.324,-0.087 -0.244,0.049 -0.334,0.031 -0.466,-0.116 0.164,0.005 0.251,0.046 0.424,-0.119 0.03,-0.222 0.124,-0.332 0.368,-0.351 0.09,-0.002 0.37,-0.317 0.37,-0.474 0,-0.152 -0.12,-0.248 -0.259,-0.306 0.173,-0.125 0.325,-0.073 0.441,-0.178 0.099,-0.093 0.205,-0.254 0.024,-0.615 0.277,0.045 0.483,0.035 0.661,0.4 0.148,-0.12 0.227,-0.365 0.247,-0.586 0.191,0.152 0.347,0.561 0.451,0.674 0.11,0.109 0.307,0.216 0.466,0.216 0.585,0 0.513,-1.009 1.401,-1.009 -0.115,-0.181 -0.158,-0.398 -0.158,-0.676 0,-0.449 0.326,-0.796 1.017,-0.877 0.152,-0.018 0.242,-0.065 0.331,-0.102 0.091,-0.043 0.27,-0.185 0.589,-0.185 0.267,0 0.409,0.093 0.58,0.232 -0.096,-0.019 -0.172,-0.012 -0.245,0.004 -0.084,0.013 -0.274,0.182 -0.372,0.201 -0.109,0.026 -0.236,0.053 -0.384,0.053 0.109,0.043 0.179,0.075 0.264,0.102 0.316,0.138 0.398,-0.164 0.82,-0.164 0.185,0 0.295,0.025 0.541,0.162 -0.105,-0.016 -0.235,0.041 -0.299,0.098 -0.062,0.057 -0.292,0.18 -0.638,0.16 0.977,0.408 1.585,-0.269 1.585,-0.522 0,-0.166 -0.077,-0.283 -0.241,-0.283 -0.145,0 -0.316,0.109 -0.515,0.05 0.071,-0.021 0.118,-0.063 0.187,-0.108 0.145,-0.094 0.328,-0.575 0.64,-0.575 0.348,0 0.413,0.347 0.285,0.666"
         id="path170"
         style="fill:#ffffff;fill-opacity:1;fill-rule:nonzero;stroke:none" /><path
         d="m 225.457,387.596 c 0.011,-0.563 0.565,-1.25 0.595,-1.34 l 0.101,0.045 c -0.052,0.105 -0.31,0.642 -0.31,0.947 0,0.391 0.361,0.392 0.644,0.318 -0.277,0.234 -0.378,0.452 -0.663,0.452 -0.181,0 -0.378,-0.109 -0.367,-0.422 z m 1.502,-2.116 c -0.059,0.101 -0.111,0.275 -0.124,0.348 0.075,0.05 0.227,0.084 0.313,0.035 0.035,-0.014 0.031,-0.54 0.02,-0.652 -0.087,0.121 -0.139,0.154 -0.209,0.269 z m -4.268,-2.963 c 0.385,-0.273 0.279,-0.75 0.841,-0.75 0.585,0 0.737,0.837 1.335,0.954 -0.044,0.022 -0.034,0.016 -0.108,0.033 -0.525,0.1 -0.831,-0.281 -1.111,-0.281 -0.185,0 -0.554,0.118 -0.787,0.397 0.069,-0.039 0.274,-0.155 0.451,-0.134 0.126,0.01 0.259,0.07 0.275,0.32 0.013,0.285 -0.34,0.472 -0.403,0.789 -0.156,-0.241 0.063,-0.577 -0.3,-0.565 -0.411,0.013 -0.732,0.508 -1.385,0.508 -0.981,0 -1.335,-0.679 -1.893,-0.679 -0.311,0 -0.56,0.23 -0.56,0.508 0,0.283 0.196,0.505 0.501,0.58 0.151,0.038 0.529,0.094 0.982,0.336 0.292,0.16 1.034,0.52 1.802,0.52 0.57,0 0.708,-0.097 0.933,-0.249 -0.061,-0.076 -0.153,-0.259 -0.257,-0.362 0.404,0.055 0.714,-0.088 0.879,-0.155 -0.107,-0.058 -0.194,-0.222 -0.273,-0.348 0.209,0.033 0.602,-0.217 1.004,-0.048 -0.062,-0.162 -0.19,-0.386 -0.249,-0.495 0.184,0.117 0.914,0.269 1.389,0.678 -0.027,-0.197 0.086,-0.329 -0.01,-0.557 0.373,0.133 0.533,0.328 0.64,0.631 0.059,-0.126 0.447,-0.324 0.632,-0.38 -0.075,0.093 -0.105,0.399 -0.088,0.57 0.075,-0.135 0.375,-0.324 0.615,-0.326 -0.065,0.076 -0.137,0.43 -0.137,0.533 0.146,-0.056 0.505,0.035 0.544,0.259 -0.278,-0.118 -0.544,0.244 -0.544,0.565 0,0.111 0.007,0.353 0.007,0.421 0,0.207 -0.052,0.241 -0.177,0.295 -0.12,0.044 -0.21,0.114 -0.28,0.349 -0.036,0.117 -0.081,0.307 -0.105,0.419 -0.028,0.145 -0.166,0.255 -0.325,0.18 -0.042,-0.014 -0.042,-0.009 -0.075,-0.024 -0.102,-0.043 -0.126,-0.051 -0.174,-0.079 -0.038,-0.019 -0.189,-0.058 -0.237,-0.081 0.118,-0.011 0.204,-0.049 0.243,-0.156 0.058,-0.15 0.058,-0.168 0.079,-0.273 0.045,-0.133 -0.057,-0.249 -0.212,-0.298 -0.321,-0.091 -0.49,0.109 -0.49,0.259 0,0.073 -0.013,0.172 -0.013,0.205 0,0.075 -0.036,0.234 -0.236,0.234 -0.109,0 -0.205,-0.036 -0.334,-0.008 0.24,-0.356 0.296,-0.737 0.308,-0.963 -0.413,0.125 -0.747,0.133 -0.674,0.799 0.013,0.099 0.015,0.282 0.033,0.414 -0.14,-0.153 -0.144,-0.096 -0.371,-0.132 0.038,0.173 0.1,0.401 0.084,0.584 -0.155,-0.166 -0.316,-0.122 -0.469,-0.219 0,0.128 0.117,0.447 0.191,0.706 0.072,0.257 0.171,0.511 0.26,0.697 0.305,0.585 0.5,0.274 0.784,0.285 0.108,0 0.264,0.113 0.292,0.288 0.108,0.097 0.176,0.219 0.183,0.517 -0.03,-0.141 -0.078,-0.216 -0.235,-0.22 -0.064,0.064 -0.213,0.087 -0.356,0.038 -0.027,0.012 -0.03,0.035 -0.059,0.061 0.065,0.056 0.144,0.219 -0.007,0.426 0.036,0.087 0.071,0.191 -0.132,0.457 0.057,-0.22 0.034,-0.276 -0.052,-0.381 -0.235,0.005 -0.286,-0.177 -0.305,-0.314 -0.071,0.004 -0.018,0.004 -0.079,0.016 0.008,0.054 -0.043,0.172 -0.157,0.224 -0.014,0.085 -0.196,0.365 -0.346,0.393 0.106,-0.145 0.144,-0.242 0.113,-0.378 -0.214,0 -0.236,-0.266 -0.236,-0.37 0,-0.085 0.036,-0.192 0.045,-0.231 0,-0.407 -0.189,-0.407 -0.282,-0.407 -0.093,0 -0.362,0.086 -0.438,0.211 -0.034,-0.382 0.094,-0.579 0.089,-0.775 -0.162,0.094 -0.361,-0.017 -0.568,0.162 0.009,-0.358 0.464,-0.826 0.464,-1.193 0,-0.123 0.007,-0.141 -0.031,-0.308 -0.511,-0.077 -1.151,1.019 -1.151,1.705 0,0.318 0.023,0.621 0.223,0.656 0.166,0.024 0.306,0.133 0.208,0.439 0.083,0.144 0.01,0.346 -0.171,0.525 0.038,-0.1 0.118,-0.219 -0.01,-0.335 -0.134,0.024 -0.25,-0.053 -0.297,-0.141 -0.028,0.003 -0.029,0.013 -0.068,0.027 0,0.138 -0.05,0.311 -0.173,0.362 -0.051,0.133 -0.228,0.252 -0.438,0.277 0.182,-0.124 0.203,-0.167 0.195,-0.313 -0.113,-0.058 -0.123,-0.255 -0.082,-0.379 l -0.061,-0.03 c -0.052,0.047 -0.131,0.136 -0.355,0.091 -0.077,0.043 -0.142,0.13 -0.478,0.045 0.266,-0.058 0.293,-0.138 0.356,-0.224 -0.063,-0.243 0.097,-0.4 0.2,-0.444 0.104,-0.049 0.179,-0.228 0.179,-0.396 0,-0.292 -0.24,-0.445 -0.494,-0.499 0.223,-0.096 0.482,-0.238 0.482,-0.435 0,-0.112 -0.063,-0.197 -0.163,-0.256 0.207,-0.118 0.543,-0.36 0.601,-0.606 -0.217,-0.03 -0.457,-0.133 -0.592,-0.344 -0.284,-0.399 -0.272,-0.674 -0.791,-1.099 -0.047,0.044 -0.102,0.082 -0.102,0.37 0,0.202 0.371,0.407 0.371,1.308 0,0.299 -0.466,0.74 -0.718,0.74 -0.246,0 -0.785,-0.316 -0.963,-0.316 -0.183,0 -0.311,0.136 -0.311,0.3 0,0.318 0.087,0.641 0.338,0.785 0.09,0.03 0.158,0.123 0.158,0.263 0,0.075 -0.007,0.227 -0.103,0.273 -0.007,0.132 -0.075,0.307 -0.281,0.392 0.069,-0.085 0.127,-0.198 0.08,-0.318 -0.242,0.016 -0.249,-0.181 -0.281,-0.239 0,0 0.01,-0.029 -0.02,-0.005 -0.028,0.023 -0.044,0 -0.073,0.023 0.047,0.2 -0.075,0.4 -0.227,0.4 -0.058,0.091 -0.277,0.221 -0.468,0.198 0.186,-0.093 0.247,-0.181 0.264,-0.264 -0.146,-0.106 -0.131,-0.339 0,-0.495 -0.047,-0.023 -0.027,-0.011 -0.063,-0.051 -0.057,0.109 -0.26,0.114 -0.342,0.094 -0.077,0.067 -0.235,0.128 -0.431,0.08 0.129,-0.027 0.225,-0.115 0.309,-0.21 -0.021,-0.063 -0.052,-0.044 -0.052,-0.193 0,-0.243 0.174,-0.275 0.256,-0.311 0.323,-0.343 0.024,-0.737 -0.169,-0.746 0.11,-0.147 0.198,-0.2 0.426,-0.269 0.188,-0.202 0.096,-0.46 -0.065,-0.636 0.175,-0.032 0.277,0.003 0.451,0.099 0.125,0.071 0.166,0.102 0.369,0.102 0.193,0 0.419,-0.128 0.419,-0.361 0,-0.305 -0.184,-0.336 -0.184,-0.639 0,-0.114 0,-0.095 0,-0.168 -0.192,0.206 -0.47,0.438 -0.947,0.423 -0.288,-0.012 -0.695,-0.423 -0.9,-0.591 -0.268,-0.207 -0.386,-0.123 -0.485,-0.078 -0.061,0.026 -0.075,0.031 -0.142,0.078 -0.066,0.052 -0.235,0.238 -0.235,0.441 0,0.204 0.091,0.407 0.175,0.488 0.153,0.16 0.104,0.407 -0.16,0.541 -0.043,0.117 -0.241,0.27 -0.446,0.27 0.085,-0.025 0.219,-0.18 0.197,-0.296 -0.071,-0.036 -0.121,-0.139 -0.121,-0.255 -0.017,-0.005 -0.036,-0.019 -0.068,-0.019 -0.067,0.144 -0.231,0.197 -0.314,0.159 -0.052,0.062 -0.172,0.17 -0.525,0.113 0.15,-0.015 0.271,-0.117 0.306,-0.2 -0.099,-0.212 0.009,-0.3 0.087,-0.38 l -0.043,-0.064 c -0.113,0.043 -0.249,0.066 -0.31,-0.09 -0.237,0.051 -0.323,0.031 -0.452,-0.102 0.162,0.002 0.244,0.039 0.412,-0.116 0.03,-0.211 0.117,-0.322 0.353,-0.334 0.087,-0.003 0.351,-0.315 0.351,-0.464 0,-0.137 -0.111,-0.234 -0.243,-0.284 0.169,-0.124 0.311,-0.072 0.421,-0.178 0.097,-0.091 0.193,-0.243 0.025,-0.586 0.265,0.042 0.459,0.033 0.634,0.381 0.143,-0.125 0.22,-0.349 0.232,-0.563 0.19,0.151 0.336,0.542 0.436,0.649 0.108,0.108 0.29,0.207 0.442,0.207 0.563,0 0.495,-0.971 1.347,-0.971 -0.105,-0.17 -0.146,-0.376 -0.146,-0.645 0,-0.431 0.309,-0.763 0.976,-0.848 0.139,-0.01 0.23,-0.061 0.316,-0.101 0.088,-0.03 0.256,-0.167 0.559,-0.167 0.262,0 0.397,0.09 0.562,0.216 -0.091,-0.019 -0.168,-0.012 -0.24,0.006 -0.075,0.018 -0.26,0.175 -0.357,0.198 -0.101,0.023 -0.219,0.046 -0.365,0.046 0.102,0.042 0.168,0.067 0.254,0.096 0.295,0.136 0.38,-0.157 0.783,-0.157 0.185,0 0.284,0.025 0.522,0.153 -0.102,-0.011 -0.223,0.041 -0.287,0.097 -0.059,0.052 -0.277,0.181 -0.61,0.159 0.935,0.387 1.524,-0.267 1.524,-0.502 0,-0.162 -0.079,-0.274 -0.235,-0.274 -0.142,0 -0.302,0.104 -0.498,0.052 0.073,-0.022 0.117,-0.058 0.179,-0.105 0.141,-0.092 0.319,-0.556 0.618,-0.556 0.329,0 0.398,0.339 0.272,0.639"
         id="path172"
         style="fill:#ffffff;fill-opacity:1;fill-rule:nonzero;stroke:none" /><path
         d="m 146.915,293.785 c 0,-1.201 0,-2.543 0.104,-3.997 l -0.87,0 c 0,0 0.039,0.217 0.039,0.617 0,2.693 -1.601,2.693 -3.962,2.693 l -10.608,0 c -1.102,0 -2.156,0.028 -3.032,0.213 -5.157,1.049 -6.52,4.989 -6.52,9.108 0,5.427 2.748,8.753 6.619,9.667 0.626,0.149 1.857,0.263 3.343,0.263 l 10.815,0 c 2.503,0 3.234,0.471 3.306,3.489 l 0.832,0 c -0.109,-1.713 -0.144,-3.489 -0.144,-5.377 0,-1.892 0.035,-3.67 0.144,-5.38 l -0.832,0 c 0,0.18 0,0.366 0,0.543 0,2.545 -1.234,2.945 -3.306,2.945 l -11.407,0 c -1.332,0 -2.479,-0.069 -3.451,-0.352 -2.926,-0.852 -4.651,-3.066 -4.651,-6.481 0,-4.146 1.636,-6.682 5.372,-7.436 0.823,-0.167 1.738,-0.192 2.764,-0.192 l 10.756,0 c 3.052,0 3.923,0.187 3.923,3.27 l 0.87,0 c -0.067,-1.01 -0.104,-2.209 -0.104,-3.593"
         id="path174"
         style="fill:#231f20;fill-opacity:1;fill-rule:nonzero;stroke:none" /><path
         d="m 138.991,277.777 c 0,-3.21 -1.633,-5.337 -4.756,-5.337 -0.105,0 -0.439,0 -0.915,0 l -7.552,0 c -0.252,0 -0.433,0 -0.508,0 -1.448,0 -1.845,-0.723 -1.891,-2.614 l -0.763,0 c 0.113,1.634 0.186,3.01 0.186,4.176 0,1.085 -0.038,2.503 -0.186,4.212 l 0.763,0 c 0.046,-1.857 0.477,-2.614 1.82,-2.614 0.039,0 0.254,0 0.579,0 l 8.249,0 c 2.58,0 3.848,1.126 3.848,3.409 0,2.473 -2.179,4.581 -5.233,4.581 l -6.864,0 c -0.252,0 -0.433,0 -0.508,0 -1.448,0 -1.845,-0.731 -1.891,-2.617 l -0.763,0 c 0.113,1.639 0.186,3.007 0.186,4.174 0,1.085 -0.038,2.505 -0.186,4.212 l 0.763,0 c 0.046,-1.847 0.477,-2.578 1.82,-2.578 0.039,0 0.254,-0.037 0.579,-0.037 l 8.719,0 c 2.11,0 2.798,0.32 2.798,2.288 0,0.101 0,0.219 0,0.327 l 0.731,0 c 0,-1.42 0.503,-3.045 1.374,-5.083 -0.642,-0.265 -1.573,-0.474 -3.765,-0.501 0.593,-0.332 3.366,-1.94 3.366,-5.998"
         id="path176"
         style="fill:#231f20;fill-opacity:1;fill-rule:nonzero;stroke:none" /><path
         d="m 125.768,261.883 c -0.252,0 -0.433,0 -0.508,0 -1.376,0 -1.813,-0.695 -1.891,-2.474 l -0.763,0 c 0.113,1.385 0.186,2.763 0.186,4.061 0,1.316 -0.073,2.617 -0.186,3.963 l 0.763,0 c 0.078,-1.706 0.515,-2.396 1.82,-2.396 0.039,0 0.254,0 0.579,0 l 8.174,0 c 0.326,0 0.621,0 0.908,0 1.786,0 2.435,0.1 2.435,2 0,0.109 0,0.177 0,0.284 l 0.731,0 c 0.14,-1.594 0.613,-3.371 1.374,-5.438 l -13.622,0 z m 20.892,0.076 c -1.019,0 -1.857,0.832 -1.857,1.881 0,1.057 0.838,1.853 1.857,1.853 1.051,0 1.888,-0.796 1.888,-1.853 0,-1.018 -0.837,-1.881 -1.888,-1.881"
         id="path178"
         style="fill:#231f20;fill-opacity:1;fill-rule:nonzero;stroke:none" /><path
         d="m 138.519,254.836 c 0,-1.199 0.04,-2.776 0.148,-3.935 l -0.802,0 c 0,1.332 -0.175,1.921 -1.013,1.921 -0.436,0 -1.383,-0.218 -2.797,-0.834 l -7.809,-3.378 4.139,-1.599 c 3.268,-1.241 5.301,-2.067 6.251,-2.067 0.832,0 1.229,0.615 1.229,1.886 l 0.802,0 c -0.077,-0.876 -0.148,-2.013 -0.148,-2.843 0,-0.767 0.071,-2.117 0.148,-3.027 l -0.802,0 c 0,0.031 0,0.218 0,0.218 0,1.905 -1.268,2.418 -3.881,3.468 l -11.696,4.688 0,0.805 13.91,5.882 c 1.087,0.471 1.667,1.026 1.667,2.871 l 0.802,0 c -0.108,-1.379 -0.148,-2.887 -0.148,-4.056"
         id="path180"
         style="fill:#231f20;fill-opacity:1;fill-rule:nonzero;stroke:none" /><path
         d="m 132.601,236.878 c -0.765,0.075 -1.343,0.109 -1.814,0.109 -4.364,0 -7.269,-2.43 -7.269,-5.807 0,-1.927 0.688,-3.2 2.399,-4.689 l -0.689,-0.656 c -2.106,1.495 -3.129,3.6 -3.129,6.363 0,5.012 3.594,8.274 8.175,8.274 4.615,0 8.794,-3.41 8.794,-8.386 0,-3.961 -2.545,-6.756 -6.14,-6.756 -0.104,0 -0.219,0 -0.327,0 l 0,11.548 z m 1.886,-8.28 c 2.435,0 3.816,1.527 3.816,3.559 0,2.323 -1.742,4.141 -4.65,4.51 l 0,-7.96 c 0.477,-0.071 0.763,-0.109 0.834,-0.109"
         id="path182"
         style="fill:#231f20;fill-opacity:1;fill-rule:nonzero;stroke:none" /><path
         d="m 138.816,212.36 c 0,-1.845 -0.8,-2.94 -1.932,-2.94 -0.903,0 -1.451,0.546 -1.451,1.272 0,1.638 2.103,0.802 2.103,2.831 0,2.003 -1.942,3.671 -4.904,3.671 l -6.864,0 c -0.252,0 -0.433,0 -0.508,0 -1.448,0 -1.845,-0.725 -1.891,-2.615 l -0.763,0 c 0.113,1.64 0.186,3.055 0.186,4.216 0,1.089 -0.038,2.457 -0.186,4.158 l 0.763,0 c 0.046,-1.843 0.477,-2.602 1.82,-2.602 0.039,0 0.254,0 0.579,0 l 8.362,0 c 2.393,0 3.192,0.578 3.192,2.567 0,0.102 0,0.254 0,0.393 l 0.73,0 c 0.212,-1.66 0.648,-3.389 1.232,-5.246 -1.215,-0.455 -3.426,-0.612 -3.984,-0.573 1.837,-0.734 3.516,-2.544 3.516,-5.132"
         id="path184"
         style="fill:#231f20;fill-opacity:1;fill-rule:nonzero;stroke:none" /><path
         d="m 136.941,197.297 -2.351,-0.039 0,0.716 c 2.107,0.394 3.674,1.841 3.674,4.416 0,1.599 -1.024,2.718 -2.222,2.718 -1.786,0 -2.127,-1.279 -3.26,-3.557 -0.568,-1.111 -0.99,-2.091 -1.491,-2.895 -0.914,-1.476 -2.078,-2.353 -3.912,-2.353 -3.13,0 -5.28,2.27 -5.28,6.031 0,1.639 0.547,3.203 1.489,4.399 l -1.018,0.49 0,0.628 c 1.347,-0.041 2.144,-0.041 2.433,-0.041 0.58,0 1.42,0.041 2.547,0.041 l 0,-0.642 c -2.87,-0.554 -4.574,-2.322 -4.574,-4.922 0,-2.254 1.426,-3.468 2.949,-3.468 1.899,0 2.454,1.296 3.647,3.847 1.474,3.042 2.397,4.88 5.099,4.88 2.478,0 4.397,-2.396 4.397,-5.035 0,-1.945 -0.327,-2.737 -0.986,-3.976 l 0.909,-0.759 0,-0.529 -2.05,0.05"
         id="path186"
         style="fill:#231f20;fill-opacity:1;fill-rule:nonzero;stroke:none" /><path
         d="m 125.768,187.51 c -0.252,0 -0.433,0 -0.508,0 -1.376,0 -1.813,-0.69 -1.891,-2.472 l -0.763,0 c 0.113,1.378 0.186,2.688 0.186,3.993 0,1.311 -0.073,2.621 -0.186,3.964 l 0.763,0 c 0.078,-1.716 0.515,-2.405 1.82,-2.405 0.039,0 0.254,0 0.579,0 l 8.174,0 c 0.326,0 0.621,0 0.908,0 1.786,0 2.435,0.109 2.435,1.994 0,0.118 0,0.187 0,0.299 l 0.731,0 c 0.14,-1.604 0.613,-3.301 1.374,-5.373 l -13.622,0 z m 20.892,0 c -1.019,0 -1.857,0.836 -1.857,1.884 0,1.054 0.838,1.859 1.857,1.859 1.051,0 1.888,-0.805 1.888,-1.859 0,-1.013 -0.837,-1.884 -1.888,-1.884"
         id="path188"
         style="fill:#231f20;fill-opacity:1;fill-rule:nonzero;stroke:none" /><path
         d="m 142.629,177.581 -4,0 0,-4.059 -1.093,0 0,4.025 -10.924,0 c -2.183,0 -3.278,-0.612 -3.278,-2.283 0,-0.983 0.545,-1.924 1.669,-2.653 l -0.535,-0.584 c -1.563,0.876 -2.221,2.377 -2.221,4.21 0,2.964 1.524,4.398 4.541,4.398 l 10.748,0 0,1.706 0.585,0 c 0.947,-1.597 2.475,-3.017 4.508,-4.136 l 0,-0.624"
         id="path190"
         style="fill:#231f20;fill-opacity:1;fill-rule:nonzero;stroke:none" /><path
         d="m 138.519,168.577 c 0,-0.538 0.04,-1.968 0.148,-4.18 l -0.802,0 c -0.028,1.455 -0.255,2.103 -1.192,2.103 -0.225,0 -0.587,-0.102 -0.987,-0.254 l -9.371,-3.628 8.356,-3.449 c 0.614,-0.256 1.273,-0.36 1.813,-0.36 0.984,0 1.353,0.538 1.381,1.886 l 0.802,0 c -0.077,-1.095 -0.148,-1.967 -0.148,-2.544 0,-0.723 0.071,-1.934 0.148,-2.885 l -0.802,0 c 0,0.037 0,0.077 0,0.109 0,1.603 -0.795,1.832 -2.58,2.552 l -11.293,4.691 c -8.098,3.338 -11.552,4.76 -11.552,6.428 0,0.584 0.396,1.133 1.059,1.133 1.184,0 1.462,-1.221 1.993,-2.113 0.542,-0.903 2.163,-1.681 5.663,-3.234 l 1.549,-0.674 12.506,5.216 c 1.571,0.658 2.655,0.77 2.655,2.616 l 0.802,0 c -0.108,-1.385 -0.148,-2.467 -0.148,-3.413"
         id="path192"
         style="fill:#231f20;fill-opacity:1;fill-rule:nonzero;stroke:none" /><path
         d="m 157.26,317.478 c 0.113,-4.686 1.244,-5.421 5.136,-5.421 l 25.075,0 c 3.908,0 5.037,0.735 5.149,5.421 l 1.3,0 c -0.057,-2.144 -0.118,-4.069 -0.118,-5.817 0,-4.349 0.229,-6.873 0.229,-10.677 0,-7.962 -2.065,-13.533 -6.058,-16.994 -3.012,-2.607 -7.034,-4.067 -12.456,-4.067 -6.097,0 -10.887,1.885 -14.209,5.159 -3.481,3.43 -5.351,8.408 -5.351,15.457 0,3.44 0.169,7.056 0.169,10.722 0,2.037 0,4.073 -0.114,6.217 l 1.248,0 z m 7.849,-11.237 c -5.196,0 -7.736,-1.186 -7.736,-6.78 0,-9.092 6.891,-12.763 18.079,-12.763 13.046,0 17.337,4.937 17.337,15.077 0,3.389 0,4.466 -3.106,4.466 l -24.574,0"
         id="path194"
         style="fill:#231f20;fill-opacity:1;fill-rule:nonzero;stroke:none" /><path
         d="m 180.86,272.575 c 0,-1.192 0.064,-2.711 0.122,-4.407 l -17.793,0 c -0.055,0 -0.055,0 -0.172,0 -3.837,0 -5.812,-1.809 -5.812,-5.306 0,-3.84 3.383,-7.119 8.128,-7.119 l 10.732,0 c 0.564,0 0.896,0 1.014,0 1.751,0 2.654,1.188 2.654,3.618 0,0.168 0,0.276 0,0.451 l 1.249,0 c -0.058,-1.75 -0.122,-3.338 -0.122,-4.686 0,-1.186 0.064,-2.659 0.122,-4.353 l -18.529,0 c -0.057,0 -0.057,0 -0.174,0 -3.045,0 -5.05,-0.434 -5.05,-3.263 0,-0.222 -0.016,-0.304 -0.016,-0.527 l -1.185,0 c 0.248,2.754 0.225,4.837 0.055,8.457 l 4.449,0.136 c -3.5,2.206 -5.076,5.198 -5.076,9.205 0,6.491 3.098,8.356 8.808,8.356 l 11.801,0 c 0.564,0 0.896,0.056 1.014,0.056 1.751,0 2.654,1.186 2.654,3.559 0,0.168 0,0.285 0,0.453 l 1.249,0 c -0.058,-1.751 -0.122,-3.273 -0.122,-4.63"
         id="path196"
         style="fill:#231f20;fill-opacity:1;fill-rule:nonzero;stroke:none" /><path
         d="m 181.202,227.669 c 0,-2.89 -1.586,-4.521 -3.134,-4.521 -1.41,0 -2.121,0.879 -2.121,1.841 0,2.88 3.278,1.468 3.278,4.489 0,2.855 -2.707,5.706 -7.624,5.706 l -10.672,0 c -0.397,0 -0.677,0 -0.794,0 -2.258,0 -2.875,-1.143 -2.93,-4.071 l -1.193,0 c 0.173,2.545 0.281,4.742 0.281,6.546 0,1.702 -0.054,3.903 -0.281,6.556 l 1.193,0 c 0.055,-2.88 0.734,-4.065 2.821,-4.065 0.054,0 0.396,0 0.903,0 l 12.988,0 c 3.727,0 4.969,0.899 4.969,4.009 0,0.165 0,0.391 0,0.617 l 1.127,0 c 0.339,-2.594 0.692,-5.266 1.601,-8.14 -1.649,-0.736 -4.848,-0.954 -5.901,-0.954 2.355,-1.013 5.489,-3.717 5.489,-8.013"
         id="path198"
         style="fill:#231f20;fill-opacity:1;fill-rule:nonzero;stroke:none" /><path
         d="m 176.49,214.828 c 3.224,-1.709 4.995,-5.197 4.995,-9.092 0,-5.306 -2.741,-8.361 -7.4,-8.361 -0.168,0 -0.672,0 -1.408,0 l -11.748,0 c -0.397,0 -0.677,0 -0.794,0 -2.258,0 -2.875,-1.125 -2.93,-4.066 l -1.193,0 c 0.173,2.545 0.281,4.742 0.281,6.549 0,1.701 -0.054,3.902 -0.281,6.555 l 1.193,0 c 0.055,-2.884 0.734,-4.07 2.821,-4.07 0.054,0 0.396,0 0.903,0 l 12.819,0 c 4.007,0 5.985,1.75 5.985,5.312 0,3.841 -3.386,7.173 -8.132,7.173 l -10.672,0 c -0.397,0 -0.677,0 -0.794,0 -2.258,0 -2.875,-1.132 -2.93,-4.067 l -1.193,0 c 0.173,2.541 0.281,4.742 0.281,6.553 0,1.689 -0.054,3.892 -0.281,6.538 l 1.193,0 c 0.055,-2.872 0.734,-4.06 2.821,-4.06 0.054,0 0.396,0 0.903,0 l 29.717,0 c 2.484,0 3.385,1.132 3.449,4.06 l 1.009,0 c 0.115,-1.742 0.622,-4.732 1.635,-9.024 l -20.249,0"
         id="path200"
         style="fill:#231f20;fill-opacity:1;fill-rule:nonzero;stroke:none" /><path
         d="m 159.189,175.94 c -1.314,1.229 -3.631,3.222 -3.631,8.453 0,4.26 2.254,7.073 5.67,7.073 3.726,0 6.015,-3.047 8.443,-9.265 l 1.129,-2.989 c 1.016,-2.597 0.961,-3.445 2.934,-3.445 l 1.227,0 c 3.559,0 5.457,1.354 5.457,5.589 0,4.382 -1.898,4.514 -3.491,4.705 -1,0.117 -2.163,0.375 -2.163,2.224 0,1.069 0.906,1.828 2.088,1.828 2.433,0 4.689,-3.138 4.689,-9.321 0,-6.607 -2.09,-9.71 -6.493,-9.71 l -14.347,0 c -2.197,0 -3.12,-0.712 -3.12,-1.898 0,-0.79 0.359,-1.422 1.202,-2.057 l -0.794,-0.737 c -1.863,1.189 -2.423,2.773 -2.423,4.972 0,2.615 1.488,4.195 3.623,4.578 z m 3.033,10.275 c -2.646,0 -4.641,-1.406 -4.641,-3.953 0,-3.77 2.473,-6.38 5.275,-6.38 l 8.052,0 c -2.765,6.998 -5.179,10.333 -8.686,10.333"
         id="path202"
         style="fill:#231f20;fill-opacity:1;fill-rule:nonzero;stroke:none" /><path
         d="m 181.541,131.28 c 0,-5.704 -3.071,-8.155 -8.186,-8.155 l -12.426,0 c -0.284,0 -0.507,0 -0.794,0 -2.258,0 -2.875,-1.122 -2.93,-4.062 l -1.193,0 c 0.173,2.541 0.281,4.745 0.281,6.555 0,1.684 -0.054,3.895 -0.281,6.546 l 1.193,0 c 0.055,-2.885 0.734,-4.007 2.821,-4.007 0.054,0 0.396,-0.058 0.903,-0.058 l 13.271,0 c 3.611,0 5.533,1.694 5.533,4.913 0,3.963 -2.839,6.662 -7.925,6.662 l -10.879,0 c -0.397,0 -0.677,0 -0.794,0 -2.196,0 -2.875,-1.124 -2.93,-3.956 l -1.193,0 c 0.173,2.438 0.281,4.581 0.281,6.435 0,2.039 -0.108,4.069 -0.281,6.277 l 1.193,0 c 0.109,-2.654 0.784,-3.782 2.821,-3.782 0.054,0 0.396,0 0.903,0 l 13.271,0 c 3.555,0 5.533,1.691 5.533,4.914 0,3.905 -3.104,6.66 -8.19,6.66 l -10.614,0 c -0.397,0 -0.677,0 -0.794,0 -2.258,0 -2.875,-1.13 -2.93,-4.068 l -1.193,0 c 0.173,2.544 0.281,4.748 0.281,6.553 0,1.697 -0.054,3.664 -0.281,6.312 l 1.193,0 c 0.055,-2.869 0.734,-3.823 2.821,-3.823 0.054,0 0.396,0 0.903,0 l 13.557,0 c 3.269,0 4.344,0.505 4.344,3.551 0,0.171 0,0.343 0,0.516 l 1.124,0 c 0,-2.206 0.793,-4.803 2.152,-7.967 -1.688,-0.455 -3.517,-0.666 -5.206,-0.666 -0.251,0 -0.471,-0.022 -0.511,0 3.098,-1.511 5.209,-5.04 5.209,-8.935 0,-5.644 -3.653,-7.488 -5.321,-7.515 2.182,-0.826 5.264,-3.783 5.264,-8.9"
         id="path204"
         style="fill:#231f20;fill-opacity:1;fill-rule:nonzero;stroke:none" /></g></g></svg>